<svg enable-background="new 0 0 1125 2436" viewBox="0 0 1125 2436" xmlns="http://www.w3.org/2000/svg"><g fill="none" stroke="#000" stroke-linecap="round" stroke-linejoin="round" stroke-miterlimit="10"><path d="m816.04 1602.81c6.9-5.03 15.52-8.95 26.31-10.62 16.23-2.51 54.99 9.05 65.06 32.71 10.07 23.67-4.74 46.27-46.36 56.78s-55.27 2.24-58.4 1.07" stroke-width="4"/><path d="m796.22 1625.24c1.44-2.76 1.25-4.47 4.31-8.27" stroke-width="4"/><path d="m800.53 1616.97c-.87-8.16-1.95-23.43 1.59-25.31 3.55-1.88 12.7 9.51 13.6 10.92" stroke-width="4"/><path d="m885.74 1602.8c-2.04-7.95-6.42-22.89-10.4-23.41s-9.3 13.29-9.65 14.92" stroke-width="4"/><path d="m837.43 1615.98c2.46 3.58-1.76 11.44-12.48 16.36-11.37 5.21-17.14 1.9-18.86-.96-5.5-9.16 25.1-24.48 31.34-15.4z" stroke-width="4"/><path d="m857.72 1608.63c-1.29 4.1 4.61 10.57 15.63 12.52 11.68 2.06 16.05-2.63 16.85-5.83 2.57-10.26-29.22-17.07-32.48-6.69z" stroke-width="4"/><path d="m858.03 1619.45c1.17 2.85-5.89 6.13-8.44-1.04 1.7 6.54-7.89 7.93-7.69 4.13" stroke-width="4"/><circle cx="821.85" cy="1621.04" r=".37" stroke-width="4"/><circle cx="872.29" cy="1608.82" r=".37" stroke-width="4"/><path d="m855.18 1592.47c-18.8-13.88-17.15-74.83-59.08-101.79-41.93-26.97-79.62-7.88-84.49-4.35" stroke-width="4"/><path d="m822.89 1687.36c6.02 7.73 38.87 35.5 39.09 44.48s-13.2 9.68-23.57 4.05-65.64-48.94-84.31-71.89c-39.81-48.95-65.55-92.67-69.65-158.24s-10.6-70.12-8.43-77.85c2.16-7.74 12.23-8.43 15.99-4.73 7.56 7.43 19.85 30.86 25.95 59.45" stroke-width="4"/><path d="m871.91 1678.46c13.59 7.32 45.09 21.16 53.33 21.02 7.79-.13 9.66-7.8 3.66-14.65-5.99-6.85-27.3-18.64-31-20.57" stroke-width="4"/><path d="m771.67 1479.82c-.62-7.25 5.58-52.37 16.72-60.32 11.14-7.96 15.23 2.1 15.21 8.85s-2.78 58.75 2.25 69.87" stroke-width="4"/><path d="m731.72 1478.14c-4.49-13.77-17.12-95.67 4.15-100.22 21.26-4.55 12.3 35.8 13.44 54.81.72 12.02 1.33 26.11 4.66 43.01" stroke-width="4"/><path d="m846.91 1731.23c1.56.58 6.57 5.29 3.11 7.92" stroke-width="4"/><path d="m854.91 1728.86c1.3 1.05 4.85 3.23 4.59 7.75" stroke-width="4"/><path d="m920.65 1691.73c2.3.5 4.88 4.07 4.51 7.01" stroke-width="4"/><path d="m925.44 1687.46c3.87 1.08 5.91 6.11 6.15 8.34" stroke-width="4"/><path d="m686.06 1430.58c2.97-.32 7.8 2.78 8.06 5.13.24 2.22-4.05 4.19-6.51 2.21-1.16 3.13-5.69 2.87-5.93.64-.29-2.68 1.42-7.66 4.38-7.98z" stroke-width="4"/><path d="m795.22 1426.17c2.26 1.31 3.84 6.4 2.65 8.44-1.12 1.94-5.26 1.26-5.83-1.66-2.63 1.93-5.64-.68-4.52-2.62 1.36-2.33 5.45-5.47 7.7-4.16z" stroke-width="4"/><path d="m810.55 1605.48-4.75-3.82-.02 7.81" stroke-width="4"/><path d="m872.45 1592.71 2.96-4.66 2.46 6.67" stroke-width="3.5"/><g stroke-width="4"><path d="m924.02 2329.22c3.58-.89 6.63-1.42 8.97-1.42 10.34 0 55.16-2.59 64.64-3.45s17.24-12.93 6.89-18.96c-10.34-6.03-31.03-3.45-36.2-11.2-5.17-7.76-7.76-37.06-39.64-47.4"/><path d="m855.37 2348.53c6.99-1.11 13.98-2.54 20.75-4.36 8.24-2.22 16.72-5.02 24.66-7.68"/><path d="m885.6 2114.06c-11.2-.86-36.2-.86-49.12 1.72-1.72-6.03-10.34-19.82-12.93-19.82s-9.48 23.27-9.48 29.3c-6.89 6.89-12.07 18.1-12.93 37.06-.63 13.78-1.72 31.89-6.89 41.37s-28.44 62.91-41.37 74.98-17.44 32.86-19.82 54.3c-.86 7.76-11.2 23.27-18.96 31.89s-7.76 17.24-3.45 20.68c4.31 3.45 12.93.86 21.55-6.89 8.62-7.76 36.2-25.85 40.51-27.58 4.03 0 29.08 2.24 58.46.17"/><path d="m885.6 2114.06c4.4-8.27 8.62-20.68 11.2-21.55 2.59-.86 9.48 16.38 10.34 26.72 7.76 6.03 14.65 14.65 15.51 41.37 1.03 31.88 5.17 61.19 6.03 79.29s-2.59 62.91-4.31 74.12c-1.72 11.2 0 18.96 1.72 25.85 1.32 5.29-12.93 13.79-22.41 2.59-8.7-10.28-4.31-52.57-6.03-57.74"/><path d="m821.82 2118.37 2.59-9.48 4.31 6.9"/><path d="m893.35 2112.34 3.45-6.9 2.59 9.48"/><path d="m815.79 2279.53c0 9.48 6.33 47.08 8.62 57.74 2.59 12.07 9.48 18.96 18.1 18.96s15.51-6.89 12.07-11.2-9.48-49.12-7.76-56.88"/><path d="m858.83 2347.96c15.57 10.87 56.94 32.41 71.59 42.75 10.01 7.06 29.3 2.59 22.41-10.34-8.35-15.66-57.95-35.65-67.22-38.78"/><path d="m715.82 2376.06c-1.72 1.72-2.22 7.75 3.63 10.34"/><path d="m840.78 2346.76c1.72 1.72 2.27 7.29-2.75 8.82"/><path d="m848.54 2345.9c.86.86 3.45 3.45 1.72 7.76"/><path d="m912.31 2337.28c.86 1.72 1.86 6.35-5.1 8.34"/><path d="m920.07 2337.28c1.72 1.72 2.59 7.76 0 9.48"/><path d="m1002.81 2311.42c3.45 1.72 5.01 5.39 3.37 8.73"/><ellipse cx="832.6" cy="2142.93" rx="16.81" ry="13.36"/><ellipse cx="890.34" cy="2142.07" rx="16.81" ry="13.36"/><circle cx="890.7" cy="2141.95" r=".37"/><circle cx="833.2" cy="2143" r=".37"/><path d="m853.71 2157.15c-1.72 5.17 8.62 1.72 8.62-3.45 0 4.31 9.48 8.62 8.62 2.59"/><path d="m877.51 1973.28c3.08-1.63 6.32-3.1 9.67-4.39 5.96-2.29 38.98-15.13 65.57 2.29"/><path d="m975.22 2020.24c-4.59 15.59-31.18 38.52-89.88 19.26-48.05-15.77-41.13-43.45-16.63-60.83"/><path d="m965.59 1983.1c0-7.34-.92-26.6-5.5-31.18-4.59-4.59-13.71 13.1-14.65 15.26"/><path d="m907.29 1963.31c-1.31-7.72-3.15-17.81-5.9-18.73s-15.59 19.26-17.43 24.76"/><path d="m909.65 1986.77c-4.59 6.42 33.93 18.34 38.52 11.01 4.58-7.34-30.95-21.62-38.52-11.01z"/><path d="m893.14 1983.1c-4.68 4.68-28.43-.92-23.85-7.34 3.89-5.43 29.35 1.84 23.85 7.34z"/><path d="m896.81 1988.6c-.92-.92-.92-3.67 0-3.67s4.59.92 4.59 2.75c-.01.92-3.67 1.84-4.59.92z"/><path d="m896.81 1988.6c-.92.92-25.68 13.76-25.68 13.76-3.67-2.75-4.59-3.67-6.42-2.75s-1.83 6.42 0 8.25"/><path d="m912.46 1962.61c16.45-15.28 21.03-52.88 44.88-76.73s49.52-27.51 59.61-27.51c.92-16.51 4.59-30.27-10.09-72.45s1.28-77.2 10.09-93.55c6.42-11.92 15.59-17.43 22.01-14.67 6.42 2.75 11.01 11.01 6.42 21.09s-17.43 38.52-15.59 57.78 22.01 62.36 12.84 104.55c15.59 6.42 37.6 22.93 39.44 49.52 1.83 26.6-7.34 42.19-10.09 56.86s-6.19 44.33-18.34 58.7c-10.09 11.92-21.69 11.02-21.09-7.34.92-28.43-7.34-77.04 20.18-88.04"/><path d="m1032.08 1987.62c-7.79 18.41-34.39 49.59-40.81 57.85-6.42 8.25-25.68 48.61-43.1 45.86-17.43-2.75 10.12-42.61 13.32-53.86"/><path d="m881.31 2038.1c-17.52 3.69-65.93 10.51-74.38-6.4-5.5-11.01 38.01-11.92 45.6-13.76"/><path d="m812.43 2037.21c-2.81-3.24 2.75-4.59 8.25-6.42"/><path d="m956.42 2080.31c-1.83 2.75-.92 8.25-.92 8.25"/><path d="m948.17 2079.4s-4.59 7.34-3.67 9.17"/><path d="m1045.38 2020.7c-2.75 3.67-1.83 9.17 0 11.01"/><path d="m1036.21 2021.62c-1.83 4.59-1.62 8.63-1.62 8.63"/><path d="m922 1985-4.49 9.53"/><path d="m879 1975-4.12 7.66"/><path d="m121.33 1431.99c-10.96 2.42-25.65 8.59-36.45 27.11-16.24 27.84 5.92 57.83 44.56 58.09 29.96.2 54.58-17.95 56.51-39.94s-20.78-54.97-64.62-45.26z"/><path d="m127.83 1456.05 2.72 1.32 3.1-1.52"/><circle cx="159.55" cy="1468.45" r="15.82"/><circle cx="105.57" cy="1467.14" r="15.82"/><path d="m130.43 1458.33s-2.25 17.11.1 21.29"/><circle cx="104.91" cy="1467.88" r=".41"/><circle cx="159.26" cy="1468.48" r=".41"/><path d="m79.79 1527.08c8.33 6.18 103.08 2.94 108.96-4.99s7.23-76.08 4.87-88.32c-.57-2.98 9.68-7.43 8.08-17.31s-33.66-25.38-73.76-21.95c-40.53 3.46-62.7 22.79-63.77 30.91-1.13 8.55 6.93 13.48 7.63 15.51s.06 80.27 7.99 86.15z"/><path d="m72.14 1533.8c10.22 14.48 120.56 6.36 125.79-5.08 6.96-15.26 6.74-76.09 5.9-91.67-.2-3.61 11.36-9.95 7.06-24.21-4.03-13.36-37.37-33.01-85.12-28.94-48.26 4.12-70.86 27.57-72.61 37.17-2.86 15.62 9.96 23.91 10.05 26.46.18 5.83-1.42 71.61 8.93 86.27z"/><path d="m101.21 1540.85c-5.96 23.07-3.23 84.19-3.7 93.96-.55 11.53-9.53 20.98-7.43 27.06 2.38 6.9 16.36 7.96 23.06 1.1s12.19-26.44 11.46-42.97"/><path d="m147.71 1619.53c.06 9.57.17 16.96.02 19.85-.59 11.53-9.29 21.02-7.29 27.08 2.26 6.89 15.73 7.87 22.22.99s13.95-33.94 13.33-50.46"/><path d="m203.97 1481.97c25.58 17.99 29.42 73.6 31.34 89.89s8.63 50.81-2.88 64.23c-11.25 13.12-20.13 16.3-28.76 24.93s-17.26 26.84-25.88 24.93c-8.63-1.92-6.71-14.38 6.71-32.59-3.83-20.13.96-67.11 32.6-65.19"/><path d="m169.52 1653.91c6.28-.65 11.44-1.55 14.65-2.5"/><path d="m119.31 1652.39c7.34 1.58 14.92 2.03 22.89 2.35"/><path d="m97.26 1592.96c-11.5 7.67-9.43 38.99-12.46 45.06-2.88 5.75-26.84 23.97-19.17 31.64 6.1 6.1 17.26-.96 23.97-7.67"/><path d="m86.89 1624.61c-24.14 3.82-70.16 2.86-81.66 7.65s-9.59 21.09.96 23.01 48.45-1.89 68.07-5.75"/><path d="m152.86 1661.98c-2.88 1.92-3.83 8.49-.96 10"/><path d="m145.19 1660.06c-1.92.96-4.31 5.47-3.6 8.49"/><path d="m103.01 1657.19c-1.92.96-2.88 6.71 0 9.59"/><path d="m96.3 1656.23c-2.88 1.92-3.83 4.79-2.88 8.63"/><path d="m178.75 1676.36c-1.92 1.92-2.88 8.63 0 9.59"/><path d="m72.33 1662.94c-3.83 1.92-6.2 6.39-4.06 8.47"/><path d="m383.97 1495.39c10.34-7.76 39.64-45.68 42.23-50.85s9.48-26.72 13.79-29.3c4.31-2.59 6.89 12.93 7.76 15.51 4.31-1.72 27.58.86 43.09 7.76 5.17-2.59 9.48-12.07 12.07-11.2 2.59.86 0 19.82 0 23.27s8.62 18.1 9.48 25.85c.86 7.76-6.25 26.02-26.72 41.37-3.45 2.59-2.66 12.93 17.24 12.93 19.82 0 44.82-27.58 42.23-37.92s-18.1-16.37-8.62-25.85 26.56 5.8 31.03 20.68c5.17 17.24-7.5 41.39-29.3 57.74-20.68 15.51-33.95 17.91-36.2 22.41-1.72 3.45 7.76 53.43 11.2 60.33s15.51 12.07 15.51 18.96c0 6.56-18.1 12.93-30.16 2.59-12.07-10.34-24.13-56.02-27.58-60.33s-75.84-2.59-79.29-1.72c-3.45.86-16.79 51.04-20.68 59.47-5.17 11.2-18.96 8.62-21.55.86-3.55-10.66 4.31-53.43 6.89-68.08 2.59-14.65-1.72-45.68 8.62-67.22-13.79-14.65-29.3-30.16-26.72-54.3 2.59-24.13 30.16-40.51 38.78-40.51s16.37 6.03 12.93 12.07c-3.45 6.03-17.24 10.34-24.13 19.82s-11.21 20.67 18.1 45.66z"/><ellipse cx="438.74" cy="1468.29" rx="9.91" ry="16.81" transform="matrix(.0346 -.9994 .9994 .0346 -1043.8615 1855.9187)"/><ellipse cx="489.5" cy="1471.65" rx="9.91" ry="16.81" transform="matrix(.0346 -.9994 .9994 .0346 -998.221 1909.8956)"/><path d="m462.28 1472.34 1.96 2.4 2.41-1.96"/><circle cx="489.9" cy="1471.57" r=".37"/><circle cx="439.3" cy="1468.31" r=".37"/><path d="m466.36 2064.78c3.06 1.44 6.07 2.85 9.01 4.25 20.54 9.77 77.32 52.29 145.7 33.38"/><path d="m386.12 1953.48c-5.67 12.07-6.35 42.14 8.49 65.19 6.56 10.19 18.22 19.31 35.62 28.52"/><path d="m455 1924.55c-16.63-.35-35.93 5.38-50.02 12.88"/><path d="m497.59 1966.23c-.68-5.03-3.04-26.44-21.05-36.45"/><path d="m639.64 2123.92c-27.1 28.47-28.31 34.46-29.47 45-1.32 12-28.17 15.66-27.27-10.33s25.41-52.23 42-55.23"/><path d="m496.37 1958.99c9.01 4.7 27.77 1.4 70.61 6.66s74.23 18.72 91.64 48.87c13.26 10.7 31.18 50.79.4 88.88"/><path d="m561.38 2060.27c-2.28 15.83 18.39 37.4 40.95 40.25s27.44.7 31.63 9.74 12 33.84 22.94 38.26 13.29-5.5 10.36-16.19-14.7-48.25-13.61-56.53 5.28-15.5 2.45-25.46"/><path d="m601.45 2118.42c-17.62 9-53.53 27.51-63.17 21.85-11.24-6.6-1.65-19.59 26.84-34.62"/><path d="m447.15 2030c-10.42 10.29-34.31 35.71-43.05 42.07s-10.46 15.46-5.41 19.95c5.04 4.49 24.57-4.08 41.92-12.36 17.35-8.27 51.89-31.45 58.88-39.79"/><path d="m409.79 2035.08c-15.85 5.85-64.9 22.76-71.68 8.28-5.21-11.12 45.59-26.47 51.71-31.58"/><path d="m476.54 1929.78c-1.43-9.27-5.39-22.03-8.68-24.54-3.3-2.51-11.9 15.3-12.86 19.31"/><path d="m404.99 1937.45c-6.03-6.43-17.11-11.71-20.21-12.77s-.67 22.26 1.05 29.42"/><ellipse cx="466.06" cy="1955.91" rx="17.21" ry="4.53" transform="matrix(.9732 -.23 .23 .9732 -437.3275 159.6115)"/><ellipse cx="409.28" cy="1969.5" rx="17.21" ry="4.53" transform="matrix(.9732 -.23 .23 .9732 -441.9751 146.9192)"/><path d="m398.23 1942.06-6.59-5.01 1.28 9.43"/><path d="m461.72 1925.29 4.19-7.22 2.64 8.51"/><path d="m433.11 1975.74c.49 3.63 8.18.36 6.47-6.79 1.71 7.16 10.52 6.7 8.48 2.54"/><path d="m436.28 1966.44 3.2 1.79 1.78-3.2"/><path d="m408.05 2082.55c-1.79.24-5.53 6.22-3.26 9.56"/><path d="m401.3 2079.82c-1.67 1.14-4.81 3.35-5.38 6.64"/><path d="m350.23 2039.38c-2.56 1.26-5.65 5.33-5.41 7.12"/><path d="m345.27 2036.41c-1.79.24-6.72 2.74-7.47 4.66"/><path d="m659.55 2135.82c1.38 3.46 5.03 8.19 8.76 6.44"/><path d="m654.92 2141.92c1.26 2.56 2.99 6.73 6.64 7.68"/><path d="m546.93 2132c-1.67 1.14-6.91 5.44-4.84 9.29"/><path d="m540.83 2127.37c-2.56 1.26-5.77 6.09-6.69 8.57"/><path d="m471.57 1950.23 2.56 8.04"/><path d="m414.31 1963.9 3 7.98"/><path d="m507.82 2232.33c.32 4.01 12.34 3.06 11.71-4.96 2.4 4.85 13.42 3.98 11.87-2.95"/><path d="m535.8 2220.32c3.02-3.02 11.06-8.04 21.11-6.03"/><path d="m502.62 2232.39c-5.03-1.01-14.07 2.01-17.09 6.03"/><path d="m483.52 2285.67c2.01 1.01 4.02 6.03 3.02 14.07-1.01 8.04 5.12 12.37 12.06 10.05 12.06-4.02 16.08-35.18 2.01-43.23-14.1-8.06-25.13 3.02-37.19 15.08s-6.61 22.87 1.01 26.14c7.04 3.02 18.09-3.02 21.11-6.03"/><path d="m569.97 2281.65c-2.01 3.02-3.02 13.07-9.05 18.09-4.94 4.12-18.99 6.97-17.09-12.06 2.01-20.11 17.09-36.19 29.15-32.17s16.08 19.1 12.06 32.17"/><path d="m560.93 2299.74c-2.01 7.04 5.03 15.08 10.05 16.08"/><path d="m476.28 2269.81c-2.82-5.26-7.84-30.39 8.24-42.45s19.1-16.08 27.14-19.1 25.13-6.03 36.19-5.03c11.06 1.01 21.11 10.05 28.15 15.08s10.05 17.09 11.06 29.15 21.11 31.16 7.04 76.4-40.21 85.45-122.64 85.45c-76.43 0-114.6-62.33-120.63-111.58-5.53-45.18 11.06-92.48 49.26-116.61 12.06-8.04 28.63 8.59 15.08 20.11-20.11 17.09-31.81 40.51-36.19 65.34-3.02 17.09-2.61 41.97 1.01 44.23 8.04 5.03 3.02-29.15 10.05-43.23s20.11-47.25 27.14-46.24c7.04 1.01 7.67 18.01-2.01 42.22-2.01 5.03 12.92-6.83 24.13-6.03 14.07 1.01 21.11 13.07 20.11 27.14"/><path d="m473.86 2261.15c-1.4-7.65-12.46-18.71-21.51-17.7s4.02-22.12-2.01-29.15c-6.03-7.04-21.03 23-23.08 45.68"/><path d="m559.47 2206.97c8.5-3.73 18.55-8.76 20.56-7.75s-4.02 18.09-4.02 18.09"/><path d="m482.58 2228.98c-10.12-2.62-17.16-2.62-19.17-1.61s6.03 13.07 10.05 16.08"/><path d="m556.91 2290.69c-3.02 3.02-3.02 11.06-1.01 11.06"/><path d="m547.86 2288.68c-1.01 2.01-3.02 8.04-2.01 11.06"/><path d="m487.54 2306.2c2.01.58 5.02-3.44 6.03-6.46"/><path d="m496.59 2309.79c2.01-1.01 4.02-7.04 4.02-9.05"/><path d="m413.41 2223.22c1.75 1.12 3.76 3.13 3.76 6.15"/><path d="m445.32 2216.3c2.01 2.01 2.01 4.02 1.01 7.04"/><path d="m690.4 1824.76c12.09-7.35 21.84-9.96 27.25-10.41 2.63-12 .39-17.26 2.94-19.28s16.28 10.44 19.12 22.9c9.38 3.76 34.43 10.75 47.77 40.48 12.38 7.14 19.27 13.82 20.47 17.35s-17.79 4.19-20.41 5.31c-.23 8.18-15.61 52.76-75.75 59.75-53.88 6.27-70.15-15.06-72.09-27.59"/><path d="m688.6 1923.73c5.11-14.93-29.02-32.96-43.42-31.77-18.01 1.49-13.45 23.78 16.41 34"/><path d="m665.68 1865.79c-8.63-5.63-26.78-4.04-27.54 6.81-.83 11.86 36.45 24.19 48.46 15.94 14.69-10.09-4.93-37.67-9.87-42.7"/><path d="m648.75 1825.48c-5.33 1.35-22.11 15.54-.87 37.76"/><path d="m713.18 1815.05c-4.31-8.14-18.42-14.23-24.49-21.88-6.07-7.66-40.26-48.35-72.6-55.65s-65.65-15.43-84.1-30.22c-18.45-14.8-30.23-14.73-35.19-8.88-3.74 4.41-2.49 13.81 10.11 23.64 12.6 9.84 21.82 22.68 29.17 34.76 7.35 12.09 21.89 23.58 43.95 27.19"/><path d="m533.42 1752.52c-9.7-2.84-32.42-25.44-42.85-30.93-10.43-5.48-18.16-.31-16.29 11.32s26.99 30.41 33.29 40.77 20.6 43.34 38.97 65.69c18.14 22.07 45.97 42.5 89.36 67.44"/><path d="m597.66 1733.22c-3.69-11.1 8.78-24.83 27.01-23.61 18.23 1.21 43.89 15.41 58.6 6.94s.69-24.54 14.73-30.23 27.53 14.95 19.41 37.38-34.16 25.49-53.67 19.85-39.12-16.37-43.31-4.86"/><path d="m643.67 1864.77c.4 2.8 4.23 5.2 7.9 5.81"/><path d="m638.53 1870.5c.58 2.93 5.31 5.26 8.16 6.83"/><path d="m635.26 1903.66c2.7-.22 7.35 1.21 10.2 2.78"/><path d="m636.41 1895.84c3.51-1.63 10.11 1.45 12.06 3.1"/><path d="m503.44 1694.9c.58 2.92 5.53 7.95 5.53 7.95"/><path d="m495.59 1700.46c.69 2.53 4.59 5.83 6.54 7.48"/><path d="m481.76 1719.45c-1.1 2.96 2.88 7.17 4.83 8.82"/><path d="m474.58 1725.63c.15 1.8 5.17 7.73 5.17 7.73"/><path d="m705.65 1833.44c-2.49 2.92-.25 8.18 7.67 16.61 5.71 6.07 12.43 8.07 15.96 6.88s1.91-10.12-7.82-18.41c-5.83-4.97-13.32-7.99-15.81-5.08z"/><path d="m776.08 1886.62c-2.27 3.09-7.9 2.13-17.93-3.64-7.22-4.15-10.72-10.23-10.38-13.94s9.41-4.19 19.72 3.36c6.18 4.53 10.85 11.13 8.59 14.22z"/><path d="m738.13 1858.25.26 4.6 4.37-1.12"/><path d="m738.85 1862.46-11.04 9.08"/><circle cx="719.55" cy="1846.67" r=".32"/><circle cx="762" cy="1877.63" r=".32"/><path d="m167.4 1834.51c8.62-10.34 29.42-15.43 37.92-9.48 8.62 6.03 3.45 45.68-13.79 49.12-17.24 3.45-11.2-22.41-8.62-28.44"/><path d="m190.66 1810.38c-9.48-6.89-23.27-2.59-32.75 12.07-9.48 14.65-15.51 35.34-3.45 44.82 12.07 9.48 25.29-5.6 25.29-5.6"/><path d="m277.71 1870.7c-7.76 12.93-31.89 22.41-38.78 9.48s24.13-38.78 38.78-34.47 14.65 21.55 10.34 31.03"/><path d="m176.88 1806.93c-6.03-8.62-5.17-27.58 21.55-55.16 1.72-14.65 0-24.99 1.72-27.58s16.37 11.2 19.82 15.51c6.89-3.45 42.23-9.48 52.57-5.17 0 0-2.59-17.24 0-18.1s21.55 12.07 24.13 31.03c11.2 11.2 18.96 35.34 14.65 59.47s-9.48 37.06-9.48 37.06c1.72 8.62 7.76 36.2-17.24 56.88-24.99 20.68-32.75-4.91-30.16-14.52"/><path d="m157.92 1822.44c-19.82 0-63.78 11.2-70.67 51.71s12.07 70.67 31.89 78.43"/><path d="m196.7 1927.58c-5.17-11.2-30.16-18.96-55.16 5.17-.86-12.07-6.89-41.37-21.55-34.47-12.6 5.93-1.72 19.82-.86 37.06s-.86 27.58 7.76 31.89 11.26-.19 20.68 2.59c14.65 4.31 75.63 16.58 116.67-61.09"/><path d="m126.04 1829.15c-4.32-10.16-16.37-13.41-25.01-12.74-11.2.86-25.85 16.37-27.58 35.34-9.48-7.76-28.44-18.1-34.47-9.48-5.59 7.99 16.37 20.68 25.85 33.61 6.65 9.06 16.37 15.51 20.96 10.47"/><path d="m92.18 1923.42c-17.86 5.03-48.02-4.45-71.29-14.79-23.38-10.39-40.51-14.65-45.68-5.17s6.29 30.35 47.4 42.23c38.78 11.2 75.66 5.04 87.38 1.66"/><path d="m192.37 1779.35c-.26 6.09 7.31 10.66 20.23 11.21s20.88-4.29 20.24-9.49-8.14-11.56-21.02-12.97-19.2 5.22-19.45 11.25z"/><path d="m211.57 1774.13-.33 7.75"/><path d="m295.8 1774.85c.57 6.07-6.75 11.03-19.62 12.24-12.87 1.22-21.08-3.2-20.71-8.43s7.53-11.97 20.31-14.04c12.8-2.07 19.45 4.22 20.02 10.23z"/><path d="m276.36 1770.63.73 7.72"/><path d="m236.34 1789.69c0 4.31 9.48 3.45 9.48-2.59 1.72 6.03 8.62 6.03 9.48 2.59"/><path d="m180.65 1868.59c3.12 2.98 10.01-3.05 10.01-7.36"/><path d="m191.53 1874.15c4.31-1.72 5.17-6.89 6.03-10.34"/><path d="m250.13 1885.35c-1.72-1.72 1.72-9.48 5.17-10.34"/><path d="m239.79 1880.18c0-2.59 3.45-7.76 7.76-8.62"/><path d="m128.51 1898.46c-4.21.69-4.21 5.86-3.35 9.31"/><path d="m118.27 1899.14c-2.59 3.45-.86 7.76 0 10.34"/><path d="m47.6 1843.99c-2.59-1.72-8.55.37-8.58 4.49"/><path d="m211.35 1743.15-5.17-6.03v8.62"/><path d="m279.43 1737.12v-7.76l6.04 11.21"/><path d="m762.17 2075.12c1.45 4.55 11.45 12.94 19.11 5.48 7.65-7.46-8.23-45.8-15.42-47.17s-24.69 21.18-26.26 33.83c-1.55 12.65 13.46 20.41 22.57 7.86z"/><path d="m721.13 2146.07c-8.01-.92-28.68 6.25-28.41 12.53s15.56 1.02 20.85-2.98c-.47 8.83-5.12 17.84 3.62 16.21 6.7-1.25 3.94-25.76 3.94-25.76z"/><path d="m721.13 2146.07s51.69-21.73 39.93-69.56"/><path d="m737.95 2087.47c5.45 9.84 19.92 14.68 44.23 4.42"/><path d="m739.48 2103.76c4.63 10.29 24.84 11.95 33.03 7.41"/><path d="m735.09 2119.05c2.36 6.19 16.74 8.94 22.65 9.95"/><path d="m727.7 2132.79c1.99 7.47 14.64 9.03 14.64 9.03"/><circle cx="769.29" cy="2059.92" r=".47"/><path d="m996 2195c-13 0-22.63-13.92 15-39 12-8 36.47-1.12 41 17 4 16-3 22-12 22s-34 0-44 0z"/><path d="m1041 2157c2-5 10-10 16-7s4.58 14.75-7.21 17.37"/><path d="m1009.94 2156.71c-2.94-6.71-8.94-10.71-14.94-7.71s-2.21 11.49 5.39 14.74"/><path d="m1012.88 2154.92c13.12-8.92 40.12-27.92 63.12-18.92s21 35 17 44-23 14-52 15"/><path d="m1095.48 2170.67c5.52 5.33 8.52-.67 20.52 4.33s13 19 23 22"/><circle cx="1033" cy="2175" r="1"/><circle cx="1000" cy="2172" r="1"/><path d="m435.83 1296.26 34.64-9.48s18.53 11.71 21.46 14.63c2.93 2.93-87.8 27.31-87.8 27.31l-25.36-14.63-16.58 20.49-154.13-5.85 19.51-19.51"/><path d="m250.41 1235.01c-14.14 17.89-15.17 35.35-18.94 40.06-3.9 4.88-21.46 18.54-1.95 33.17 26.34 1.95 148.28 3.9 148.28 3.9l4.99-1.37"/><path d="m329.99 1215.81c-17.39-3.68-36.75-2.9-52.59 2"/><path d="m370.97 1262.39c-.71-9.88-2.43-24.36-14.79-34.94"/><ellipse cx="260.24" cy="1267.02" rx="19.02" ry="9.02"/><path d="m259.76 1260.26v13.53"/><ellipse cx="326.58" cy="1267.02" rx="19.02" ry="9.02"/><path d="m327.07 1260.26v13.53"/><path d="m289.02 1271.17 2.93 2.92 2.92-2.92"/><path d="m291.95 1274.09c-2.93 4.88-3.9 18.53 0 27.31"/><path d="m356.33 1227.27s.98-22.44-3.9-25.36c-4.88-2.93-22.44 12.68-22.44 12.68"/><path d="m277.32 1217.51c-2.93-7.8-20.23-13.3-21.46-12.68-3.9 1.95-6.93 22.06-5.85 29.27"/><path d="m338.77 1218.49 7.81-4.88.97 8.78"/><path d="m267.56 1222.39-6.83-4.88-.97 9.76"/><path d="m358.2 1229.31c13.74-.09 54.89-5.19 82.03 10.64 23.41 13.66 31.22 37.07 30.24 46.83"/><path d="m371.94 1276.04c-12.68 8.78-14.44 35.5 12.29 34.33s51.23-8.53 51.6-14.12c.5-7.53-10.23-16.31-43.4-10.46"/><path d="m421.69 1295.56c2.93.98 10.73-1.95 11.71-3.9"/><path d="m225.15 1329.37 4.36 23.74 150.24 6.83 90.72-25.36 3.2-25.8"/><path d="m378.77 1314.09v45.85"/><path d="m67.8 2141.81c-2.66 12.41 1.73 28.36 10.64 28.36 11.52 0 16.84-35.45 9.75-48.75s-29.25.89-37.23 8.86"/><path d="m35.01 2170.17c2.66 4.43 15.69 15.36 33.1-11.82"/><path d="m165.29 2141.81c-7.98 11.52-10.64 29.25 0 30.13 10.64.89 27.48-29.25 20.39-42.54s-30.13-4.43-41.66 15.07"/><path d="m136.05 2171.94c.89 7.09 17.76 12.32 27.05-.49"/><path d="m104.14 2084.2c0 5.32 15.95 7.98 19.5 0-.89 6.2 5.32 12.41 12.41 9.75"/><path d="m161.97 2126.72c3.32-7.07-.22-23.91-10.86-34.54-10.64-10.64-15.95-14.18-30.13-19.5s-31.91-3.55-45.2 0-29.25 25.7-31.91 34.57c-11.52 15.07-51.41 85.09 23.93 166.63-4.43 7.98 1.77 20.39 29.25 35.45 1.77 23.93 4.43 47.86 13.29 49.63s12.41-52.29 13.29-57.61c17.73-6.2 63.81-34.57 71.79-81.54 12.41-4.43 42.5-29.43 39-43.43-3.55-14.18-36.34 15.07-41.66 17.73 6.2-18.61 1.75-41.23-13.31-33.47"/><path d="m182.54 2252.78c7.57 4.25 28.85 13.12 43.03 29.07 12.08 13.59 24.82 48.75 8.86 55.84s-16.84-26.59-25.7-38.11c-8.54-11.11-26.15-24.57-39.22-30.01"/><path d="m87.8 2070.24c-.51-1.99-11.14-13.51-12.91-14.4s-4.6 14.93-4.96 19.43"/><path d="m149.34 2089.52c8.86-1.77 15.95-4.43 17.73-3.55 1.77.89-4.72 19.52-6.79 20.4"/><path d="m71.34 2164.85c2.3.51 4.43-5.32 5.32-8.86"/><path d="m78.44 2170.17c3.55-.89 4.43-8.86 4.43-10.64"/><path d="m159.09 2164.85c.89.89 3.55-.89 6.2-4.43"/><path d="m163.52 2171.06c2.66-.89 6.2-5.32 7.09-7.09"/><path d="m234.09 2175.36c-2.32-1.65-7.64 3.67-7.64 3.67"/><path d="m109.46 2347.44c-.89.89 1.81 7.41 4.45 9.02"/><path d="m348.96 2129.34c22.59 22.75.3 34.72-33.09 46.68s-59.43 41.42-36.94 65.59c22.5 24.17 46.29 7.31 38.66-5.95s-57.2-13.71-65.74 40.3c-8.53 54 42.65 90.46 52.74 123.96 10.46 34.71-16.34 64.82-45.51 45.18"/><path d="m1065.58 1629.11c5.86-4.28 32.86 14.7 44.73 37.96s15.89 41.62 15.89 41.62c11.89 4.73 21.67 16.79 19.04 21.34-2.62 4.54-18.61-11.29-18.61-11.29 3.49 6.3 7.62 23.63 3.05 24.04-8.83.78-11.79-21.25-13.19-25.62-45.79-15.76-62.72-72.23-50.91-88.05z"/><path d="m1070.8 1675.62c4.62 4.24 29.52-7.74 30.08-21.84"/><path d="m1066.64 1628.64 10.03 14.9"/><circle cx="1069.76" cy="1651.49" r=".9"/><path d="m1082.33 1681.57c2.88 1.49 7.61-1.13 7.43-5.15"/><path d="m1096.85 1672.49c2.88 1.49 7.61-1.13 7.43-5.15"/><path d="m1094.57 1685.07c2.88 1.49 7.61-1.13 7.43-5.15"/><path d="m1094.3 1697.57c2.88 1.49 7.61-1.13 7.43-5.15"/><path d="m1106.02 1689.01c2.88 1.49 7.61-1.13 7.43-5.15"/><path d="m1106.97 1701.86c2.88 1.49 7.61-1.13 7.43-5.15"/><path d="m289.29 1655.24c.31-9.55 11.57-16.53 17.41-11.92 8.33 6.57.1 36.66-4.97 43.98s-34.38-16.18-33.68-29.72c.45-9 17-11.22 21.24-2.34z"/><path d="m879.8 1451.25c-7.7-3.71-26.94-2.39-29.19 7.66s37.83 24.78 43.64 17.56c4.43-5.5-1.34-18.9-14.45-25.22z"/><ellipse cx="873.09" cy="1431.4" rx="9.5" ry="7.5" transform="matrix(.1648 -.9863 .9863 .1648 -682.6296 2056.6416)"/><ellipse cx="896.34" cy="1441.38" rx="9.5" ry="7.5" transform="matrix(.665 -.7469 .7469 .665 -776.2265 1152.3479)"/><ellipse cx="908.76" cy="1459.41" rx="8.87" ry="7" transform="matrix(.8949 -.4462 .4462 .8949 -555.689 558.7935)"/><ellipse cx="850.21" cy="1438.3" rx="7" ry="8.87" transform="matrix(.9268 -.3756 .3756 .9268 -477.995 424.6765)"/><path d="m841.19 1452.52c-2.99-2.66-13.46-19.63 2.07-30.01 4.16-2.78 10.76-.46 15.76 3.42.21-12.65 23.11-22.21 29.4.8 12.8-9.28 33.45 4.34 22.15 18.39 19.35-3.79 24.22 27.6-6.18 29.63-2.71 10.71-5.57 20.15-9.29 26.41-5.2 8.77-65.91-11.52-63.21-22.23 4.2-16.6 7.39-22.76 9.3-26.41z"/><circle cx="305.05" cy="2106.29" r="51"/><path d="m261.15 2129.68c16.68 9.16 66.06-.22 94.12-32.26"/><path d="m265.95 2139.06c17.74 9.29 59.57 6.8 90.07-31.27"/><path d="m286.37 2153.54c14.01 3.97 47.57-6.64 65.46-26.91"/><path d="m301.47 2129.16c10.42-9.22 18.14-65.14 3.48-73.87"/><path d="m315.44 2125c11.35-15.83 20.19-53.81 7.22-66.59"/><path d="m331.87 2116.78c8.69-10.84 14.03-36.17 9.2-46.61"/><path d="m267.57 2071.7c1.78 12.48 26.02 32.2 40.56 35.32"/><path d="m258.52 2086.29c.9 8.2 27.49 31.73 47.73 31.34"/><path d="m297.28 2073.25-8.67-101.83"/><path d="m284.81 2081.99-66.54-72.98"/><path d="m282.78 1971.33 12.19-.68"/><path d="m214.46 2011.36 6.97-7.45"/><path d="m19.1 739.89c4.09-13.09 22.33-18.42 28.64-9.82 9 12.28-13.91 50.74-23.73 58.92s-41.34-35.56-35.19-54.01c4.1-12.27 27.83-9 30.28 4.91z"/><path d="m651.86 1274.98c-16.43 3.29-75.58 38.34-81.06 21.91s29.58-31.77 39.44-38.34c-36.15-69.01-16.43-85.44-5.48-86.54-4.38-18.62-1.1-46.01 9.86-62.44 10.95-16.43 62.44-61.34 86.54-73.39s60.25-17.53 62.44-14.24c.61.91-7.67 12.05-12.05 15.34 1.1 2.19 30.67 35.05 33.96 41.63 0 0 14.24-6.57 17.53-2.19s-23 60.25-51.49 77.78c0 0 2.19 26.29 1.1 35.05 6.57-1.1 19.72 0 21.91 10.95s-5.48 50.39-8.76 62.44c8.76 5.48 35.05 21.91 29.58 30.67-5.48 8.76-37.36.73-67.98-22.64"/><path d="m697.25 1270.01c-4.79.45-9.77.89-14.65 1.34"/><path d="m678.15 1219.12c0 7.67 3.29 47.1 4.38 53.68 1.1 6.57-10.95 16.43-23 13.15-11.67-3.18-4.38-15.34-5.48-21.91s-4.38-36.15-5.48-41.63"/><path d="m695 1217.62c.94 7.61 2.51 47.15 2.22 53.81s12.88 14.97 24.44 10.23c11.2-4.59 2.47-15.76 2.75-22.41.28-6.66-.08-36.41.34-41.98"/><circle cx="711.56" cy="1063.02" r="16.98"/><circle cx="753.19" cy="1106.84" r="16.98"/><path d="m731.83 1082.19-1.1 4.38 4.38-1.1"/><circle cx="753.74" cy="1106.29" r="1.1"/><circle cx="712.11" cy="1063.57" r="1.1"/><path d="m659.53 1273.89c-1.1 2.19-3.4 9.13-1.15 11.68"/><path d="m668.29 1276.08c-1.1 2.19-2.19 6.57 0 9.86"/><path d="m711.01 1272.79c2.19 3.29 1.1 7.67 0 8.76"/><path d="m720.87 1271.7c1.1 1.1 2.19 4.38 1.1 8.76"/><path d="m782.22 1288.13c2.19 1.1 2.19 6.57 1.1 7.67"/><path d="m788.79 1285.94c2.19 0 5.48 3.29 5.48 3.29"/><path d="m586.13 1290.32c-4.38 2.19-2.19 9.86-2.19 9.86"/><path d="m577.37 1288.13c-2.19 2.19-5.48 5.48-5.48 8.76"/><path d="m783.12 1273.89c19.91 7.67 29.76 14.24 26.48 27.39-3.29 13.15-25.19 18.62-39.44 20.81-14.24 2.19-9.86 23 7.67 21.91s52.58-18.62 54.77-40.53-27.39-42.72-62.44-47.1"/><path d="m740.59 1030.7 6.57-1.09-3.28 4.38"/><path d="m786.6 1086.57 6.57-2.19-3.29 5.48"/><path d="m224.6 607.62c14.87 14.1 23.81 32.22 23.81 51.97 0 44.98-46.34 81.44-103.5 81.44s-103.5-36.46-103.5-81.44c0-19.68 8.87-37.73 23.63-51.81"/><path d="m224.6 607.62c-14.76-19.17-2.2-28.34-6.73-29.47-4.52-1.13-119.9 0-147.05 0-3.39 0 6.79 18.1-7.87 31.71"/><path d="m204.3 640.36c-7.92-5.66-27.15-36.2-18.66-62.72 8.48-26.52 32.24-48.14 49.2-41.35 16.97 6.79-13.57 20.36-22.62 37.33s-.9 36.77 2.26 40.72c4.52 5.66 32.8 33.93 18.1 67.87-13.88 32.04-55.43 46.38-88.23 46.38-22.62 0-65.61-10.18-82.57-41.85-16.97-31.67-1.13-54.3 4.52-62.21s13.57-21.49 13.57-29.41-2.26-27.15-1.13-30.54c0 0-14.7-14.7-15.84-18.1s21.49-2.26 21.49-2.26 33.93-19.23 75.79-11.31c12.44-5.66 21.49-7.92 23.75-6.79 0 3.39-7.92 20.36-7.92 20.36 3.39 2.26 14.7 15.84 12.44 24.89"/><path d="m84.79 565.97c-1.42 7.99 32.02 7.3 32.3-.73.27-8.04-30.36-10.24-32.3.73z"/><path d="m78.74 555.52-4.53-4.52h6.79"/><path d="m165.84 537.43 6.78-2.27-2.26 5.66"/><path d="m143.09 563.22c-.36 8.46 32.67 4.63 31.89-3.76-.78-8.4-31.4-7.85-31.89 3.76z"/><path d="m157.92 556.66 2.26 8"/><path d="m102.49 560.05-1.13 10.18"/><path d="m127.38 562.31 3.39 2.26 2.26-3.39"/><path d="m91.18 621.13c6.79-10.18 23.96-16.84 32.8-11.31 9.05 5.66 25.15 39.7 9.05 48.64-10.18 5.66-20.36-19.23-20.36-26.02"/><path d="m233.88 678.9c.95-13.65-10.36-34.02-44.29-43.06-7.92-3.39-15.84-16.97-23.75-22.62-7.92-5.66-23.75-4.52-19.23 6.79s20.36 20.36 19.23 21.49c-15.84 7.92-28.28 29.41-5.66 48.64"/><path d="m127.38 658.46c3.39-2.26 1.13-7.92 1.13-7.92"/><path d="m135.3 647.15c1.13 2.26 1.62 7.95 1.62 7.95"/><path d="m152.62 610.05c-2.62 4.29.77 8.81.77 8.81"/><circle cx="313.88" cy="465.04" r="23.72"/><circle cx="385.8" cy="439.62" r="23.72"/><path d="m347.62 471.93c2.28.66 9.2-2.78 7-8.85 1.67 6.11 9.82 5.09 11.33 1.57"/><path d="m438.16 437.27c11.55 32.69-16.58 72.44-62.83 88.79-46.25 16.34-93.11 3.09-104.66-29.6-5.14-14.53-2.43-30.46 6.23-45.11-3.57-11.56-2.98-32.74.39-36.64 3.12-3.59 12.13 3.61 18.81 14.21 10.26-8.75 22.94-16.14 37.39-21.25 14.32-5.06 28.69-7.28 42.06-6.97-3.96-9.45-4.7-21.42 1.14-20.13 3.81.84 15.12 6.49 28.27 25.51 15.94 5.96 28.06 16.65 33.2 31.19z"/><path d="m382.58 429.3 5.27 14.91"/><path d="m308.92 455.34 5.27 14.9"/><path d="m153.95 1058.86c-3.19 34.64-8.27 56.78-10.95 62.14-3 6 19 26 18 53-.85 23.01-13.49 51.07-12 60 1 6 8 12 4 19-2.48 4.34-17 4-22-4-3.39-5.43-1-30-4-38s-5-12-7-14"/><path d="m69 964c2-13 24-47 31-54 2-10 8-27 12-29 2.53-1.26 9 15 11 20 6 0 35 9 42 16 11-7 18-10 20-10 3 0-4 25-7 29s2.94 30.24 1 38c-6 24-14.24 26.02-19.99 46.99"/><path d="m37.26 1037.12c4.72-45.99 16.11-72.33 28.74-73.12 16-1 27 17 30 28s13 23 31 27 59 0 68 4 16 13 4 18-76 17-95 14-41-22-46-28"/><path d="m105 1137c9 9 24 41 13 62s-13 23-13 29c0 14 10 17 10 28 0 6-15 10-24 2-11.63-10.34-16-62-20-73s-37-36-36-107c.11-8.13.4-15.88.84-23.24"/><path d="m94.24 1052.21c-24.76.93-46.74 4.54-57.24 2.79-12-2-27.85-18 27.08-22"/><path d="m177.45 1046.66c-.47 5.44-2.15 9.69-5.45 11.34-8.47 4.23-23.9-.49-42.44-3.64"/><path d="m166 1006c3.26 2.93 5.39 7.99 7.71 14.99"/><path d="m53.94 1159.1c-16.94 19.9-25.94 43.9-29.94 64.9s-18 30-36 34c-18.24 4.05-23.66-17.27-5-21 30-6 13-47 60-101"/><path d="m108 904 3-9 4 6"/><path d="m169 923 7-4-3 9"/><ellipse cx="108.5" cy="944.5" rx="17.5" ry="14.5" transform="matrix(.3281 -.9446 .9446 .3281 -819.3067 737.0699)"/><path d="m109.5 940.09-2.29 6.61"/><ellipse cx="155.5" cy="959.5" rx="17.5" ry="14.5" transform="matrix(.3281 -.9446 .9446 .3281 -801.8984 791.5456)"/><path d="m156.5 955.09-2.29 6.61"/><path d="m130 949 1 3 3-1"/><path d="m131 952-8 23"/><path d="m204.75 1031.36c-1.75-2.36-9.75-.36-9.75-.36"/><path d="m196.78 1023.87c-.78-.87-5.78 1.13-5.78 1.13"/><path d="m37 1047c-3 0-6 3-7 4"/><path d="m35 1042c-3 0-8 2-8 2"/><path d="m101 1254c3 2 2 7 2 7"/><path d="m108 1252c2 1 4 6 3 8"/><path d="m141 1246c1 1 2 6 0 8"/><path d="m149 1246c1 1 2 5 1 8"/><path d="m924 288c-2-11-12-35-23-43-6-14-10-29-14-30s-13 19-14 21c-7-2-36-1-41 1-6-8-13-19-16-20s-13 25-14 33c-10 11-20 43-22 50s-25 46-3 97c2 20 13 32 42 30s40.59-6.95 40-14c-1-12-26-15-49-13"/><path d="m901 395c-23 1-41 4-42 18s27 12 42 11 42.29-7.14 44-14c4-1 33.82 3.08 69-12 7-3 85 11 87-5s-64-34-70-51-13-116-130-97"/><path d="m771.57 381.66c-13.57 2.34-43.02 23.21 6.71 22.78"/><path d="m1025.17 318.95c20.83 4.05 80.83-2.95 99.83-6.95s34.04-3.84 37 8c3 12-34.64 34.43-118.32 34.22"/><path d="m868 276c0 11 39 8 39-1 0-10-39-11-39 1z"/><path d="m799 277c0 11 39 8 39-1 0-10-39-11-39 1z"/><path d="m895.5 268.25.5 12.75"/><path d="m828.18 269.21v13.42"/><path d="m881 238 5-8 3 10"/><path d="m822 240-4-8-3 11"/><path d="m860.52 407.48c1.48 1.52 11.48.52 11.48.52"/><path d="m861 416c5 2 10 0 10 0"/><path d="m846 409c3 1 10 0 10 0"/><path d="m847 416c2 1 10 2 12 0"/><path d="m1091 388c1 1 7 3 9 3"/><path d="m1088 396c2 1 5 1 10 1"/><path d="m750.95 394.59c2.05.41 9.05-1.59 9.05-1.59"/><path d="m754 400c1 0 9-1 9-1"/><path d="m767 882c-20-6-34-33-21-70-7-20-9.74-27.14-9-29 2-5 21 4 27 9 8-2 50-5 55-3-1-13-3.44-17.81-3-20 1-5 21.9 4.69 31 32 3 9 4 37 14 54s10 29 8 43-13 62-27 70-61 13-76 12-20-15-2-23 53-14 58-19"/><path d="m803 842c0 9 34 5 33-3-.87-6.95-33-3-33 3z"/><path d="m826 836 2 9"/><path d="m749 848c0 9 34 5 33-3-.87-6.95-33-3-33 3z"/><path d="m772 842 2 9"/><path d="m788 843 3 2 3-3"/><path d="m791 845 6 14"/><path d="m741.05 836c-9.05-6-18.05-2-29.05 9-10.51 10.51-23.54 36.66-14 44 13 10 31-20 45.17-33.32"/><path d="m709.94 847.23c-27.94-.23-71.94 9.77-100.94 41.77s-38 50-48 62-22 30-18 36 13 8 24-2 27-31 32-34 59-14 65-31"/><path d="m753.69 973.86c-10.69 5.14-51.69 14.14-96.69 9.14-39.08-4.34-66-4-69-4"/><path d="m562 988.84c.28 21.78 0 43.96 0 53.16 0 14 24 19 26 0s4-54-3.81-75.41"/><path d="m600.79 898.3c-21.36 5.35-39.4 23.26-39.92 52.67"/><path d="m545.37 973.86c-12.37-1.86-19.37-8.86-16.37-15.86s15.27-7.9 31.13-5.95"/><path d="m543 985c2 1 5-2 5-2"/><path d="m549.91 991.74c3.09-.74 5.09-5.74 5.09-5.74"/><path d="m529 960c2 2 5 4 5 4"/><path d="m532.66 953.99c2.34 3.01 5.34 4.01 5.34 4.01"/><path d="m766 972c-3 0-5 3-5 5"/><path d="m760 964c-2 1-7 3-7 7"/><path d="m709 881c-1 1-4 7-3 9"/><path d="m700 877c-1 2-3.33 8.85-2.66 11.42"/><path d="m826 782s4 5 5 9"/><path d="m749 794c1 0 6 3 7 5"/><path d="m913 484c10-4 32-5 36 2 3.33 5.82-1 19-26 21s-42-8-39-25 28-33 63-32"/><path d="m948 573c-10 8-19 34-11 45 9.3 12.79 45-1 43-12s-20-9-28-6"/><path d="m963.79 597.68c8.21-2.68 14.21-10.68 14.21-13.68"/><path d="m964 560c1 13 19 31 37 39 0 0-20 7-18 24s20 21 28 20"/><path d="m1020 630c7 4 39 11 56 1"/><path d="m1054 637c1 5-10 12-25 18s-33 19-44 18-8-16 20-30"/><path d="m989 663c-4 2-4 7 0 9"/><path d="m938 487c2 1 9 1 10-1"/><path d="m937 497c2 1 8.77 1 10.39 0"/><path d="m966 605c2 1 8.39-1.9 10.7-4.45"/><path d="m970 612c2 0 7.34-1 9.67-3"/><path d="m884 479c-9 4-23 21-25 25-5 4-25 24-22 30s20 1 20 1c1 6 12 33 22 40-9 3-15 9-13 12 1.24 1.86 16 5 37 0 10 0 32.01-3.2 38.5-6.1"/><path d="m890 534c9-2-5-31-14-27s2.12 29.64 14 27z"/><path d="m902 530c2-5 9 6 2 8 7-3 12 8 6 7"/><path d="m884 520 4-2"/><path d="m853 521-5 6 7-1"/><path d="m883 580-5 3h9"/><path d="m912 575c9-2-5-31-14-27s2.12 29.64 14 27z"/><path d="m906 561 4-2"/><path d="m933.92 450.29c48.08-17.29 88.08-22.29 138.08 3.71s61 85 62 110-1 64-27 104-39.42 65.95-41 81c-2 19-30 19-30-2s5-45 40-90"/><path d="m1100 514c-19-10-53-5-56 20s28 57 35 65c0 10-11 65 6 67s24-46 22-65"/><path d="m1083 651c-4 2-4 10-4 10"/><path d="m1092 652c1 1 3 7 2 9"/><path d="m388.49 1040.53c-1.19 7.14-19.05 20.24-39.28 20.24"/><path d="m346.83 1058.39c2.38 5.95 17.86 33.33 7.14 39.28s-40.47-14.28-32.14-53.57 86.9-61.9 121.42-59.52 83.33 32.14 85.71 67.85-13.09 53.57-5.95 83.33 8.33 52.38 1.19 70.23c-7.14 17.86-32.14 13.09-23.81-9.52 8.33-22.62 2.38-52.38-2.38-66.66s-2.38-25 1.19-32.14"/><path d="m434.92 1033.39c-17.86 2.38-48.81 51.19-38.09 88.09-7.14 4.76-50 10.71-47.62 26.19 1.72 11.16 40.47 4.76 60.71 0s28.57-4.76 34.52-13.09 11.9-14.28 20.24-15.48c8.33-1.19 21.82-3.57 31.74-14.28"/><path d="m356.35 1096.48c8.33 8.33 27.14 17.2 39.17 19.31"/><path d="m478.09 1116.17c-.31 6.5-5.07 17.21-33.64 18.4"/><path d="m384.92 1113.15c-17.12 1.01-47.74 13.29-27.44 22.72"/><path d="m320.64 1069.1c-10.71-2.38-29.76 9.52-17.86 25s52.44 22.37 42.89 4.04"/><path d="m421.65 985.59c.17-4.58-5.78-16.48-6.97-18.86s2.38-14.28 0-21.43c-2.38-7.14-19.05 8.33-21.43 10.71-5.95-2.38-46.43 5.95-51.19 8.33-5.95-3.57-20.24-5.95-25-5.95s4.76 21.43 7.14 26.19c-4.76 8.33-10.99 29.57-1.92 57.64"/><path d="m331.35 976.25-2.38-5.95 7.14 1.19"/><path d="m368.25 986.96 3.58 2.38 2.38-3.57"/><path d="m384.92 982.2 21.43-3.57"/><path d="m359.92 986.96-23.81 4.76"/><path d="m350.4 1088.15c1.19 2.38 3.39 4.02 7.05 4.39"/><path d="m343.26 1091.72s4.31 6.68 7.51 6.91"/><path d="m339.68 1101.24c2.38 2.38 3.57 2.38 5.95 2.38"/><path d="m361.11 1144.1c-1.19 0-8.33 3.57-7.14 5.95"/><path d="m352.78 1131c1.19-3.57 7.14-4.76 7.14-4.76"/><path d="m401 960 5-5v7"/><path d="m278.93 291.82c3.27-9.8 37.02-30.49 46.82-41.38s1.09-23.95-13.07-16.33-28.31 8.71-46.82 18.51-23.95 25.04-39.2 46.82c-18.51 11.98-30.49 27.22-32.67 39.2-4.36 3.27-19.6 18.51-18.51 21.78.77 2.31 14.16 4.36 26.13 0 3.27 6.53 27.22 33.75 37.02 39.2-2.18 4.36-3.27 21.78 0 21.78s16.33-6.53 26.13-17.42c16.33-3.27 41.46-32.73 50.09-39.2 13.07-9.8 38.11-19.6 51.18-43.55s17.42-54.44 7.62-60.98c-9.8-6.53-14.16 14.16-19.6 23.95-5.44 9.8-18.51 28.31-31.58 33.75"/><path d="m291.1 241.67c-26.89-10.71-66.32-14.49-123.23.06"/><path d="m344.29 298.82c-.01-5.56-6.32-24.93-26.21-41.37"/><path d="m214.67 377.09c-23.94.75-68.58.75-145.89-71.11-6.53 4.36-17.42-2.18-31.58-23.95s-19.6-42.47-9.8-44.64c9.8-2.18 32.67 37.02 34.84 39.2 2.18-17.42 34.84-63.15 82.75-23.95"/><path d="m224.49 231.93c-5.44-14.16-16.33-39.2-66.42-14.16-6.53 3.27-4.36-5.44 0-15.24s11.98-26.13 4.36-30.49-28.31 16.33-41.38 65.33"/><path d="m109.07 340.82c-17.64 8.28-45.73 33.75-53.35 53.35-10.63 27.32 1.09 43.55-16.33 46.82s-33.75-68.6 50.09-114.33"/><path d="m194 348.44-4.36 5.44 7.63-1.08"/><path d="m245.18 402.88-1.09 7.62 6.53-5.44"/><path d="m259.33 359.33c-5.44 4.36 17.42 28.31 23.95 21.78 6.54-6.54-14.91-29.01-23.95-21.78z"/><path d="m268.04 373.48 8.75-8.77"/><path d="m222.31 325.57c-5.44 4.36 17.42 28.31 23.95 21.78 6.54-6.53-14.91-29.01-23.95-21.78z"/><path d="m231.02 339.73 8.75-8.77"/><path d="m252.8 350.62h3.26v3.26"/><path d="m266.95 340.82-10.89 9.8"/><path d="m22.44 245.69c3.88.4 7.14 2.58 8.23 4.76"/><path d="m155.22 173.13c2.84 1.1 3.93 7.63 2.84 9.81"/><path d="m360 84c3-16 12-47 17-50s12 14 12 14c4-2 41-3 52-1 4-10 6-16 8-16s10 11 15 26 38 66 7 92"/><path d="m476 149c-7 0-38 1-39 14s29 11 39 7 17.3-20.98 2.15-28.99"/><path d="m416.33 45.93c-50.33-42.93-126.33-52.93-157.33 25.07s5 119 116 103c23 13 64 1 62-11-1.68-10.06-27-10-36-10"/><path d="m383 84s15-4 25 0"/><path d="m435 82s12-5 22-1"/><path d="m418 82 4 3 3-4"/><path d="m424 108s1-17-2-24"/><path d="m427 161c1 0 7.08.82 7.54-2.09"/><path d="m427 168c2 1 6 0 8-1"/><path d="m438.21 159.35c-.21-.35 3.79 2.65 8.79.65"/><path d="m438 166c1 1 7 2 9 1"/><path d="m623.78 264.22s-15.82-1.05-23.2 5.27c-14.76-23.2-55.89-79.09-70.65-75.93s-2.11 18.98 6.33 41.13c8.44 22.14 10.55 64.33 14.76 84.36 4.22 20.04 32.69 54.83 72.76 61.16s107.56-13.71 114.94-52.73-18.98-84.36-33.74-95.96-9.49-21.09-14.76-37.96-11.6-21.09-11.6-28.47-3.16-18.98-7.38-21.09-13.71 14.76-13.71 14.76-56.94 2.11-70.65 30.58 6.33 53.78 22.14 63.27"/><path d="m605.11 171.77s-11.91-13-15.07-11.94c-3.16 1.05-2.33 18.28-1.17 26.01"/><path d="m640.65 243.13c-12.65 1.05-37.44 8.07-40.87 25.12"/><path d="m631.16 197.79c1.28 5.12 35.85 1.05 34.8-5.27-1.05-6.33-36.91-3.17-34.8 5.27z"/><path d="m616.4 199.9c1.48 5.17-26.36 11.6-28.47 4.22s26.36-11.6 28.47-4.22z"/><path d="m547.52 295.86c-15.49-11.6-32.36-9.49-35.52-2.11s29.91 19.13 42.37 34.88"/><path d="m569.94 350.75c-43.17-2.17-91.68 10.49-108.55 25.25s-2.34 29.04 16.87 20.04c33.74-15.82 71.65-24.52 123.88-22.28"/><path d="m655.42 190.41 1.05 6.33"/><path d="m605.85 196.74 1.91 8.96"/><path d="m524.66 202.01c1.05 0 6.33 4.22 6.33 4.22"/><path d="m528.87 194.63c2.11 1.05 6.33 5.27 6.33 5.27"/><path d="m513.06 295.86c2.11-2.11 9.49-2.11 10.55-1.05"/><path d="m621.94 560.63c-18.26 0-42.33-25.16-39.74-46.17 2.15-17.44 19.34-30.78 31.15-40.01 8.31-6.5 34.37-21.55 61.23-4.1 9.67-7.18 19.34-13.34 21.48-13.34 4.3 0 2.15 22.57 0 28.73 6.45 6.16 16.11 21.55 22.56 36.94s23.63 22.57 33.3 44.12 29 131.33-49.41 143.64"/><path d="m615.04 473.18c-.63-1.82-13.52-14.13-15.66-14.13s-2.15 20.52 0 25.65"/><path d="m636.98 507.28c0 6.16 35.45 6.16 35.45-1.03-.01-7.18-35.45-9.24-35.45 1.03z"/><path d="m618.71 506.25c0 4.1-26.85 6.16-27.93-1.03-1.07-7.18 27.93-7.24 27.93 1.03z"/><path d="m618.71 514.46c0 2.05 8.59 3.08 8.59-3.08 1.07 4.1 4.3 7.18 7.52 3.08"/><path d="m663.83 505.22v5.75"/><path d="m610.12 505.22v4.41"/><path d="m668.13 534.98c-12.89 6.16-40.82 6.16-67.67 64.64s-29 120.04 63.38 113.89c13.96 4.1 20.41 13.34 66.6 17.44s103.12 2.05 117.09-6.16 5.37-17.44-10.74-18.47-53.71 7.18-96.68 4.1c-13.97-1-20.67-4.7-20.67-4.7"/><path d="m688.54 583.2c4.3-7.18 32.5-15.3 40.82-3.08 13.96 20.52-20.56 66.24-39.74 68.74-23.63 3.08-50.49-42.07-45.12-62.59 3.68-14.07 33.29-20.51 44.04-3.07z"/><path d="m979 40c-38 14-31 62-16 84-52-9-63.32 10.28-61 18 3 10 33.76 2.79 59 10 28 8 39 7 51 9s25-6 23-2c-12 14-36.11 26.99-76 22-32-4-50.05-19.03-57-6-8 15 16.17 35.47 76 31 67-5 91-38 106-67s39-104-27-148-155-16-179 3c-10.71 8.48-30.35 6.67-42 21-14.45 17.77-20.81 50.99-23 55-6 11-9 30-7 32s14 0 20-3c2-1 24 16 51 22 5 6 17 14 20 13 .95-.32-2-13 0-16s6-14 6-14"/><path d="m908 47c-1 9-14 31-11 45s15 20 34 18 23-13 15-19-29-4-29-4"/><path d="m899.8 112.21c3.2 5.79 35.2 12.79 55.2-.21"/><path d="m939 97c2 1 8 1 9-1"/><path d="m938 104c1 1 4 1 6 1"/><path d="m913 138c-3 1-6.09 4.76-3.55 8.88"/><path d="m861 89 3-1v3"/><path d="m870 95c1 2 14 7 19 7"/><path d="m833 81c1 2 15 8 21 7"/><path d="m817 85-2 8"/><path d="m888 118 3 6"/><path d="m1039.02 1266.67c5.16 12.58 14.67 28.79 3.17 34.86s-43.73-28.15-35.86-51.96 38.2-21.04 49.25-10.51c7.7 7.33 17.84 30.51 24.63 49.97 12.41 14.94 32.24 34.22 37.13 88 4.9 53.78 3.73 96.06 15.05 132.18 6.97 10.41 13.95 20.82 2.63 28.88s-34.04-9.95-58.77-83.01c-3.62 15.39-24.8 69.54-41 68-16.21-1.54-1-33.05-1-33.05"/><path d="m1039.6 1482.51c-5.34 7.52-22.81 25.17-39.83 14.67s-9.06-44.36-.73-63.19c-6.79-19.46-9.33-36.3-10.78-52.24"/><path d="m991.41 1372.43c-1.36 7.15-10.56 17.12-16.38 18.56-12.77 3.17-22.27-13.03-40.83-7.33-5.81 1.79-35.4 19.29-43.18 10.96-7.79-8.33 15.75-25.53 29.06-33.77s30.96-12.86 32.77-15.03.54-16.12 7.15-20.73"/><path d="m1027.3 1231.66c-13.27-7.9-41.61-21.38-77.64 1.98s-40.43 101.95 6.14 97.78"/><path d="m937.35 1263.88c.45 4.98 11.77-3.08 7.97-11.77 6.43 4.44 20.28-8.88 12.22-9.15"/><path d="m977.7 1221.8c3.1-10.08 10.7-14.78 11.7-14.88 1-.09 7.61 6.34 11.23 13.04"/><path d="m922.86 1279.3c.01 1.96-14.11 12.29-15.74 16.45s15.85 8.6 15.85 8.6"/><path d="m1036.85 1286.95c.45 4.98 7.73 9.96 10.25 8.92"/><path d="m1030.15 1290.58c.18 1.99 2.48 8.33 4.86 10.87"/><path d="m900.16 1384.75c-2.9 1.27-6.34 9.17-2.99 12.1"/><path d="m1041.95 1508.4c-2.72 3.26-3.27 11.18-1.9 13.65"/><path d="m1032.81 1507.23c-2.81 2.26-4.5 6.85-4.74 9.18"/><path d="m1123.71 1524.05c3.26 2.72 3.57 10.98.61 14.63"/><path d="m1133.49 1521.16c2.08.81 5.7 7.51 5.25 13.58"/><path d="m1010.45 1500.56c-19.73 18.53-52.41 45.61-90.8 54.13-19.91 4.42-23.36-13.94-4.08-22.72s57.61-27 74.47-52.3"/><path d="m1035.97 862.66c41.26 21.84 58.03 47.36 63.03 67.34 6 24 1 86-23 117 0 7 2 22-3 35s-11 27-3 31 35 8 34 19-58 0-62-7-8-50-11-52-38-8-45-27c-18 15-59 22-78 23s-50-2-72-18c-20.62-15-.07-27.5 12-19 27 19 85 22 126 5"/><path d="m924.87 897.96c-.12-12.6 3.09-23.76 4.13-28.96 1.93-9.68 16.04-40.88 73.1-21.16"/><path d="m957.68 945.6c-7.19-2.62-14.02-6.66-19.68-12.6-3.57-3.74-6.25-7.77-8.22-11.94"/><path d="m1008 945c-5.27 2.64-15.37 4.89-26.81 4.71"/><path d="m931.34 1066.92c-15.93 15.39-36.82 28.86-33.34 34.08 6 9 30.78-3.19 42-8 14-6 26-17 35-20s26.85-5.85 30.92-8.93"/><path d="m990.32 949.34c8.68 6.66 12.68 30.66 4.68 44.66-7.06 12.35-31.25 31.72-45.77 50.53"/><path d="m1008 903c-5-4-4-28-4-41s-9.65-41.09-8-51c2-12 20-24 31-21s-2.23 16.84-5 21c-6 9 17 50 17 66"/><path d="m966.85 841.43c-7.85-2.43-31.85-13.43-39.85-21.43s-17-14-24-9 3.85 31.7 31.93 45.35"/><path d="m957.86 945.66c-.86 6.34 1.14 24.34 4.14 25.34s18.66-19.55 19.83-21.28"/><path d="m924.87 897.96c-9.87 4.04-17.87 20.04-18.87 22.04s20.57 2.12 23.78 1.06"/><path d="m964 910c2 6 11 11 21 13"/><path d="m931 886c0 3 9 11 15 12"/><path d="m952 895c1-5 8 0 6 6 4-4 8-4 10 0"/><path d="m965 958s6-7 7-9"/><path d="m917 915s8 0 11-1"/><path d="m1030.92 792.83c-2.92-.83-7.92 4.17-7.92 5.17"/><path d="m1023 790c-3 1-6 4-6 5"/><path d="m907 810c0 2 3 5 3 5"/><path d="m901.22 813.79c-.22 3.21 4.78 7.21 4.78 7.21"/><path d="m1093 1129c1 1 4 3 3 7"/><path d="m911 1091c-1.58 1.58-3 5-2 6s7 1 9-1-2-4-3-4c0-1-2-3-4-1z"/><path d="m372.1 636.01c-10.22 8.18-37.82 3.07-49.07-21.47-8.57-18.7-16.36-22.49-23.51-21.47s-22.49-3.07-10.22-16.36 29.65-8.18 38.85 0c8.71 7.74 12.27 25.56 26.58 27.6s31.69-17.38 36.8-20.44c5.11-3.07 17.38-43.96 53.16-53.16 26.58-18.4 30.67-19.42 32.71-17.38s-1.02 16.36-4.09 19.42c4.09 0 25.56 10.22 30.67 15.33 5.11-7.16 12.27-17.38 15.33-16.36 3.07 1.02 4.09 26.58 0 33.73 2.04 8.18 7.16 25.56-20.44 66.45"/><path d="m479.44 667.7c-6.13 14.31-17.38 24.53-30.67 18.4s18.4-64.4 41.91-56.22 19.42 52.13-12.27 72.58c-5.11 19.42-9.2 36.8-25.56 60.31 6.13 15.33 8.97 29.43 7.16 43.96-2.04 16.36-2.04 33.73 3.07 36.8s39.87 6.13 39.87 17.38c0 7.23-52.13 4.09-61.33 0s-31.69-61.33-44.98-65.42c-22.49 3.07-48.81-5.71-55.2-2.04-3.98 2.28-11.98 6.06-22.49 27.6-5.62 11.51-13.29 17.38-19.42 19.42s-62.85 10.11-65.42-1.02c-3.07-13.29 40.89-16.36 42.93-26.58 1.17-5.84 3.07-44.98 18.4-68.49s47.74-36.96 56.22-53.16c11.24-21.47 13.79-51.59 13.79-51.59"/><path d="m254.54 824.11c-19.17 1.69-35.81 1.74-46 2.04-33.73 1.02-29.65-21.47-8.18-24.53 25.48-3.64 77.69-6.13 77.69-6.13"/><path d="m372.63 795.39c-8.57 8.05-27.58 14.14-50.04 18.69"/><path d="m486.59 562.41c-2.04 6.13 22.49 19.42 27.6 11.24 5-7.99-23.55-23.39-27.6-11.24z"/><path d="m475.35 553.21c-3.07 7.16-37.82-4.09-32.71-13.29s36.53 4.38 32.71 13.29z"/><path d="m464.1 562.41c-1.02 4.09 8.18 6.13 11.24 2.04-1.02 4.09 2.04 9.2 6.13 8.18"/><path d="m499.88 572.63 3.07-5.11"/><path d="m452.86 550.14 3.06-6.13"/><path d="m295.43 584.9c-2.04 0-3.07 6.13-1.02 7.16"/><path d="m462.06 676.9c-1.02 1.02-3.07 8.18-2.04 10.22"/><path d="m452.86 674.86c-1.02 1.02-4.09 7.16-3.07 11.24"/><path d="m492.72 857.84c2.04 0 4.09 2.04 4.09 5.11"/><path d="m250.45 834.33c-2.04 0-7.64 3.82-6.88 9.57"/><ellipse cx="681.5" cy="2213" rx="60.5" ry="12"/><ellipse cx="680.66" cy="2237.31" rx="39.34" ry="7.8"/><path d="m716 2267.51c-1 4.49-15.67 7.8-35 7.8s-35-3.49-35-7.8"/><path d="m621 2213 25.3 55.53"/><path d="m742 2213-26 55"/><path d="m709.5 2260.99c0 3.15-12.87 5.7-28.75 5.7s-28.75-2.55-28.75-5.7"/><path d="m641 2237 11 24"/><path d="m720 2237-10.74 24.72"/><path d="m829 1822c0 16.03 8 61 9 66s58 2 63 2 47-25 49-27-5-66-6-68-33-24-37-27l-2-14-58 14 2 14s-20 36-20 40z"/><path d="m901 1887s-7-71-8-73-44-32-44-32l58-14"/><path d="m893 1814 51.34-17.45"/><path d="m840 1860s-3-18-2-18 8 8 9 8 5-9 5-10 4 17 4 18"/><path d="m861 1841 3 16"/><path d="m869 1838 3 19 8-1"/><path d="m881 1837 4 19"/><path d="m890 1840-6 8 9 7"/><path d="m574.88 748.53c2.35 4.71 25.9 7.85 28.25 3.14s10.99-21.19 10.2-22.76c-.78-1.57-14.13 3.14-14.13 3.14-.78-3.92-4.71-18.05-6.28-18.05s-10.2 17.27-10.2 17.27c-1.57-1.57-10.99-7.85-11.77-7.85s1.4 20.05 3.93 25.11z"/><ellipse cx="858" cy="631" rx="43" ry="9"/><path d="m910 657c0 4.97-23.28 11-52 11s-52-6.03-52-11"/><path d="m901 631 9 26"/><path d="m815 631-8.88 25.4"/><path d="m806.81 654.43c-7.19 2.43-9.21 6.7-7.81 10.36 2 5.21 26.42 11 59 11s56.73-6.99 58-11.79c1-3.79 0-8-6-10"/><ellipse cx="61.3" cy="1308.21" rx="69.5" ry="12" transform="matrix(.9918 -.1279 .1279 .9918 -166.7585 18.5748)"/><path d="m130.36 1300.31c1.28 9.92 1.62 12.57 2.05 15.87.85 6.57-29.33 15.88-67.4 20.79s-69.62 3.56-70.46-3.02c-.42-3.29-1.02-7.93-2.17-16.86"/><path d="m19.05 1321.37c11.61-3.17 26.52-6.1 42.9-8.21 16.36-2.11 34.47-3.09 46.5-2.97"/><path d="m64.52 1337.03 1.27 9.92"/><path d="m65.92 1347.94c6.43-4.86 14.62-3.9 15.64 4.03s-8.86 17.28-12.83 17.79c-4.09.53-16.03-7.01-16.92-13.95s7.52-12.06 14.11-7.87z"/><path d="m532.53 834.11c0-15.09 5.8-47.58 9.28-54.55 0-19.73 0-23.21 3.48-25.53s17.41 12.77 19.73 16.25c3.48-1.16 39.46-3.48 53.39 0 5.8-6.96 13.93-15.09 17.41-13.93s1.16 24.37 1.16 26.69 6.96 32.5 5.8 51.07"/><path d="m641.55 811.11c15.07 3.17 24.45 7.62 24.45 12.56 0 9.61-35.59 17.41-79.5 17.41s-79.5-7.79-79.5-17.41c0-5.18 10.34-9.84 26.75-13.02"/><ellipse cx="617.26" cy="812.06" rx="17.41" ry="6.96"/><path d="m625.43 805.91-.05 10.79"/><ellipse cx="561.3" cy="811.99" rx="17.41" ry="6.96"/><path d="m569.48 805.84-.06 10.79"/><path d="m587.08 808.58 2.32 2.32 2.32-2.32"/><path d="m589.4 812.06v17.41"/><path d="m770.66 1367.87-175.33-36.03c4.58 4.36 1.58 28.59-1.82 54.17-3.41 25.58-7.92 36.03 27.5 57.99s-9 56-1 98"/><path d="m850.61 1386.2c.53-2.43-1.01-4.83-3.43-5.36l-73.26-16.04c-2.43-.53-4.83 1.01-5.36 3.43-.53 2.43 1.01 4.83 3.43 5.36l73.26 16.04c2.43.54 4.82-1 5.36-3.43z"/><circle cx="630.65" cy="1557.81" r="17.5"/><path d="m638.41 1573.5c-.2 10.29 5.42 20.89 19.16 33.98s14.37 20.68 14.94 26.03c.58 5.35 8.37-5.57 2.69-18.41-10.59-23.94-3.1-35.71-31.49-44.42"/><path d="m114 90-95-9c0 12 3 62 4 65s82 16 92 14 85-41 87-43-2-60-2-62-41-10-46-11-76 30-81 33 38 11 41 13l84-34"/><path d="m116 157-2-65"/><path d="m19 81s74-29 79-31 40.58-1.17 40.58-1.17"/><path d="m39 102c10.05-.01 44.94 3.53 52 4 15 1 15 26-1 25s-48.02-3.89-53-5c-9-2-12.96-23.99 2-24z"/><path d="m79 82-9 3"/><ellipse cx="82" cy="118" rx="6" ry="11" transform="matrix(.0467 -.9989 .9989 .0467 -39.7009 194.3996)"/><ellipse cx="49" cy="116" rx="6" ry="11" transform="matrix(.0467 -.9989 .9989 .0467 -69.1618 159.529)"/><path d="m82 118v5"/><path d="m49 116v5"/><ellipse cx="417.98" cy="1786.89" rx="58.74" ry="9.55"/><ellipse cx="417.5" cy="1812.2" rx="50.62" ry="7.16"/><path d="m476.7 1805.04c9.6 9 15.3 20.26 15.3 32.47 0 29.54-33.35 53.49-74.5 53.49s-74.5-23.95-74.5-53.49c0-12.61 6.07-24.19 16.24-33.34"/><path d="m359.24 1786.89c.96 4.78 4.86 11.43-.92 18.13"/><path d="m476.19 1787.02c-.96 4.78-4.86 11.43.92 18.13"/><path d="m469.21 1812.41c8.3 7.13 13.24 16.05 13.24 25.72 0 23.4-28.86 42.37-64.47 42.37s-64.47-18.97-64.47-42.37c0-9.98 5.26-19.16 14.05-26.4"/><path d="m447.11 1837.51c0-1.91-13.37-10.51-27.7-10.51s-18.15 9.55-18.15 9.55c-3.82-6.69-22.92-15.28-4.78 2.87-5.73 6.69-8.6 20.06 5.73 5.73 2.87 5.73 11.46 5.73 15.28 5.73 12.43 0 29.62-8.59 29.62-13.37z"/><path d="m431.11 1828.74c-5.97 3.04-4.02 16.8 1.69 19"/><path d="m436.6 1835.6v2.87"/><path d="m328.29 884.19c3-5 18-17 28-3 7.91 11.07-19 44-22 44s-29-19-31-32 15-21 25-9z"/><path d="m341.29 875.19c5-1 18.7-4.03 23.7-3.9 3.83.1 7.73 1.87 11.08 6.56 7.91 11.07-19.25 42.8-22 44-.78.34-10.78 3.34-19.78 3.34"/><path d="m314.29 878.19c5-2 17.44-2.91 23-2"/><path d="m139.48 460.6c-1.87-10.33 2.84-17.84 6.59-18.78 3.76-.94 11.27-.93 15.96 9.41 4.69 2.82 21.6 2.84 23.46 13.17 1.87 10.33-9.41 19.71-24.43 17.82-6.58 7.51-16.92 13.13-26.3 7.49-9.39-5.65-2.8-22.55 4.72-29.11z"/><path d="m116.98 423.01c-6.58 5.63 5.61 24.42 15 20.67s-3.83-30.23-15-20.67z"/><path d="m153.59 433.38c7.51.01 11.33-25.34-.91-25.36-10.33-.01-9.58 25.35.91 25.36z"/><path d="m123.51 462.46c-1 4.96-22.54 3.73-22.53-6.6s24.42-2.79 22.53 6.6z"/><path d="m170.49 444.66c4.69 2.82 19.73-12.19 9.41-17.83-7.82-4.27-18.59 12.31-9.41 17.83z"/><path d="m1086.85 836.24c4.51-8.79 12.32-11.72 15.67-10.27 3.34 1.45 8.96 5.75 6.55 16.16 1.89 4.79 14.52 14.47 10.01 23.27s-18.31 9.36-28.46-.65c-9.21 1.85-20.16.14-23.95-9.45s10.81-18.45 20.18-19.06z"/><path d="m1091.53 795.27c-8.14.44-9.77 21.47-.61 24.04 9.17 2.57 14.43-24.8.61-24.04z"/><path d="m1112.97 823.96c5.61 4.3 22.97-12.47 13.82-19.48-7.71-5.91-21.66 13.47-13.82 19.48z"/><path d="m1073.85 828.5c-3.58 3.14-18.99-10.1-13.07-17.82 5.91-7.71 19.85 11.88 13.07 17.82z"/><path d="m1119.15 842.06c1.89 4.79 21.73 2.17 17.23-7.95-3.4-7.67-20.94-1.42-17.23 7.95z"/><path d="m636.26 439.62c3 6 33 10 36 4s14-27 13-29-18 4-18 4c-1-5-6-23-8-23s-13 22-13 22c-2-2-14-10-15-10s1.78 25.55 5 32z"/><path d="m455.33 1405.64c3 6 33 10 36 4s14-27 13-29-18 4-18 4c-1-5-6-23-8-23s-13 22-13 22c-2-2-14-10-15-10s1.77 25.55 5 32z"/><path d="m425.36 926.83c0 2.36 2.02 3.33 4.55 3.22 4.21-.18 9.83-1.93 9.83.88 0 .31-1.54 2.13-3.16 3.75-1.12 1.12-2.24 2.24-4.49 4.49-2 2-3.79 4.01-4.04 6.14-.38 3.24 1.45 5.46 5.41 5.82 4.23.39 10.62.92 14.33.39 3.04-.44 4.49-2.24 4.52-4.41.03-2.11-2.19-2.7-4.87-2.86-4.17-.25-7.5.49-7.5-1.7 0-1.92 4.4-5.02 7.85-8.97 1.66-1.9 1.96-4.2 1.82-6.22-.18-2.57-2.58-5.16-6.02-5.08-3.66.09-9.27.09-12.96.33-3.21.19-5.27 2.03-5.27 4.22z"/><path d="m460.09 913.82c0 2.54 2.18 3.59 4.91 3.48 4.54-.19 10.6-2.08 10.6.95 0 .33-1.66 2.3-3.41 4.05-1.21 1.21-2.42 2.42-4.84 4.84-2.16 2.16-4.09 4.33-4.35 6.62-.41 3.49 1.57 5.89 5.84 6.28 4.57.42 11.46.99 15.46.42 3.28-.47 4.84-2.42 4.87-4.75.03-2.27-2.37-2.92-5.25-3.09-4.5-.27-8.09.52-8.09-1.84 0-2.07 4.75-5.42 8.47-9.68 1.79-2.05 2.11-4.53 1.96-6.71-.19-2.78-2.78-5.57-6.49-5.48-3.94.09-10 .09-13.98.36-3.46.2-5.7 2.19-5.7 4.55z"/><path d="m493.81 903.13c0 2.82 2.41 3.98 5.43 3.85 5.03-.21 11.74-2.31 11.74 1.05 0 .37-1.84 2.55-3.77 4.48-1.34 1.34-2.68 2.68-5.36 5.36-2.39 2.39-4.52 4.79-4.82 7.33-.45 3.87 1.73 6.52 6.46 6.95 5.06.46 12.68 1.1 17.12.46 3.63-.52 5.36-2.68 5.39-5.26.03-2.52-2.62-3.23-5.81-3.42-4.98-.3-8.96.58-8.96-2.03 0-2.29 5.25-6 9.38-10.72 1.99-2.27 2.34-5.02 2.17-7.43-.21-3.07-3.08-6.17-7.19-6.07-4.37.1-11.07.1-15.47.4-3.84.24-6.31 2.43-6.31 5.05z"/><path d="m103.16 2024.71c0 2.1 1.8 2.97 4.05 2.87 3.75-.16 8.76-1.72 8.76.78 0 .28-1.37 1.9-2.81 3.34-1 1-2 2-4 4-1.78 1.78-3.38 3.58-3.6 5.47-.34 2.89 1.29 4.86 4.82 5.19 3.77.34 9.47.82 12.77.34 2.71-.39 4-2 4.03-3.93.02-1.88-1.96-2.41-4.34-2.55-3.72-.22-6.69.43-6.69-1.52 0-1.71 3.92-4.47 7-8 1.48-1.7 1.75-3.74 1.62-5.55-.16-2.29-2.3-4.6-5.36-4.53-3.26.08-8.26.08-11.55.3-2.85.2-4.7 1.83-4.7 3.79z"/><path d="m134.13 2013.11c0 2.27 1.94 3.2 4.37 3.1 4.05-.17 9.45-1.86 9.45.84 0 .3-1.48 2.05-3.04 3.61-1.08 1.08-2.16 2.16-4.32 4.32-1.92 1.92-3.64 3.86-3.88 5.9-.36 3.11 1.4 5.25 5.2 5.6 4.07.37 10.21.89 13.78.37 2.92-.42 4.32-2.16 4.34-4.24.03-2.03-2.11-2.6-4.68-2.75-4.01-.24-7.21.47-7.21-1.64 0-1.84 4.23-4.83 7.55-8.63 1.6-1.83 1.88-4.04 1.75-5.98-.17-2.48-2.48-4.97-5.79-4.89-3.52.08-8.91.08-12.46.32-3.07.19-5.06 1.96-5.06 4.07z"/><path d="m164.18 2003.58c0 2.51 2.15 3.55 4.84 3.43 4.48-.19 10.46-2.06 10.46.93 0 .33-1.64 2.27-3.36 3.99-1.19 1.19-2.39 2.39-4.78 4.78-2.13 2.13-4.03 4.27-4.3 6.53-.4 3.45 1.54 5.81 5.76 6.19 4.51.41 11.31.98 15.26.41 3.23-.47 4.78-2.39 4.81-4.69.03-2.24-2.34-2.88-5.18-3.05-4.44-.27-7.99.52-7.99-1.81 0-2.04 4.68-5.34 8.36-9.56 1.77-2.03 2.08-4.47 1.94-6.63-.19-2.74-2.74-5.5-6.41-5.41-3.89.09-9.86.09-13.79.35-3.42.25-5.62 2.21-5.62 4.54z"/><path d="m847.12 1001.13c1.37.34 68 0 72-2s0-25-17-27-20 9-20 9 2-15-11-14-7 16-5 18c-4 1-23 15-19 16z"/><path d="m919.12 999.13c9 0 14 6 9 14s0 16 7 19"/><path d="m479.86 434.93c1.01.99 58.49 34.68 62.95 35s12.75-21.5-.85-31.89-21.79-2.46-21.79-2.46 9.37-11.88-2.32-17.65-14.18 10.19-13.48 12.93c-3.96-1.18-27.44 1.17-24.51 4.07z"/><path d="m542.81 469.94c7.74 4.59 8.98 12.3.6 16.63s-8.16 13.76-3.67 19.91"/><path d="m857.71 1192.81c4.97-15.91 27.13-22.38 34.8-11.93 10.94 14.91-16.9 61.64-28.83 71.58s-50.22-43.2-42.75-65.62c4.96-14.9 33.79-10.93 36.78 5.97z"/><path d="m939.1 1156.11c3.45-11.05 18.85-15.55 24.17-8.29 7.6 10.36-11.74 42.81-20.03 49.72s-34.88-30-29.69-45.58c3.45-10.35 23.48-7.59 25.55 4.15z"/><path d="m994.92 1127.05c2.28-7.29 12.43-10.25 15.94-5.47 5.01 6.83-7.74 28.24-13.21 32.79s-23.01-19.79-19.58-30.06c2.27-6.83 15.48-5.01 16.85 2.74z"/><path d="m0 1804.6c4.36-5.77 10.36-6.9 12.59-5.43s5.73 5.27 2.69 12.47c.76 3.69 8.65 12.26 4.29 18.03s-14.38 4.44-20.44-4.05c-6.87.17-14.55-2.43-16.08-9.82-1.52-7.38 10.11-11.94 16.95-11.2z"/><path d="m8.52 1775.65c-5.92-.7-9.74 14.25-3.46 17.26s13.51-16.07 3.46-17.26z"/><path d="m20.37 1799.03c3.51 3.81 18.13-6.1 12.41-12.31-4.81-5.23-17.31 6.99-12.41 12.31z"/><path d="m-8.4 1797.39c-2.98 1.81-12.42-9.67-7.19-14.49 5.24-4.82 12.82 11.05 7.19 14.49z"/><path d="m22.55 1812.85c.76 3.69 15.39 4.3 13.42-3.57-1.48-5.95-14.91-3.65-13.42 3.57z"/><path d="m456.5 245.57c.29-6.92 4.41-11.08 6.96-11.14s7.39 1.03 8.91 8.37c2.61 2.5 13.5 4.95 13.21 11.88s-8.91 11.33-18.32 7.94c-5.32 3.88-12.8 6.01-18.02 1.02s1.46-14.93 7.26-18.07z"/><path d="m447.44 218.11c-5.05 2.67.08 16.54 6.67 15.49 6.6-1.06 1.91-20.03-6.67-15.49z"/><path d="m469.52 230.08c4.84 1.09 10.96-14.68 3.08-16.46-6.65-1.5-9.84 14.93-3.08 16.46z"/><path d="m445.94 244.46c-1.36 3.05-15.06-.86-13.56-7.51 1.51-6.65 16.14 1.73 13.56 7.51z"/><path d="m478.77 239.79c2.61 2.5 14.47-4.99 8.64-10.12-4.41-3.88-13.75 5.24-8.64 10.12z"/><circle cx="772.67" cy="497.05" r="40.81"/><path d="m737.54 515.77c13.35 7.33 52.86-.18 75.32-25.81"/><path d="m741.38 523.27c14.2 7.44 47.67 5.45 72.08-25.02"/><path d="m757.72 534.86c11.21 3.18 38.07-5.32 52.38-21.54"/><path d="m769.8 515.35c8.34-7.38 14.52-52.13 2.79-59.11"/><path d="m780.98 512.03c9.08-12.67 16.16-43.06 5.78-53.29"/><path d="m794.13 505.45c6.95-8.68 11.23-28.95 7.36-37.3"/><path d="m742.67 469.37c1.42 9.98 20.83 25.77 32.46 28.27"/><path d="m735.44 481.05c.72 6.56 22 25.4 38.2 25.08"/><path d="m799 528.13c-26 17.87-32 87.87 22 82.87 27.77-2.57 63.33-11.38 92 5 21 12 57.13 51.94 25 83-30 29-25-46 28-14s12 80-32 83"/><path d="m877.12 769.35-6.16-5.05-6.31 5.52c-1.89 1.09-4.2-.46-3.91-2.62l2.36-8.52-6.67-3.19c-1.62-1.46-.86-4.14 1.28-4.53l7.64-.14 2.17-7.58c.89-1.99 3.67-2.09 4.71-.18l3.23 7.2 7.14-.25c2.16.23 3.13 2.84 1.63 4.42l-5.96 4.26 2.56 7.75c.44 2.13-1.74 3.85-3.71 2.91z"/><path d="m1044.68 2262.03-8.62-7.06-8.84 7.73c-2.64 1.52-5.88-.65-5.48-3.67l3.31-11.93-9.34-4.47c-2.26-2.04-1.2-5.79 1.79-6.34l10.69-.2 3.04-10.61c1.24-2.78 5.13-2.93 6.59-.25l4.53 10.08 9.99-.36c3.03.32 4.37 3.98 2.28 6.19l-8.34 5.96 3.58 10.85c.63 2.98-2.43 5.39-5.18 4.08z"/><path d="m705.9 1979.05c-.65-11.04 11.59-20.26 18.8-15.57 10.29 6.69 3.97 42.23-1.11 51.2s-41.31-15.04-41.93-30.71c-.41-10.42 18.42-14.72 24.24-4.92z"/><path d="m638.79 1040.47s5.49 13.07 10.54 12.29c5.06-.78 4.51-14.93 4.51-14.93s13.08-1.51 13.04-5.13-8.33-8.84-11.25-10.11c0 0 3.66-12.44 0-15.15s-12.67 8.89-12.67 8.89-13.22-5.88-15.77-3.14c-2.56 2.74 4.62 13.93 4.62 13.93s-10.47 10.24-8.48 13.96c1.98 3.72 10.71 1.23 15.46-.61z"/><path d="m114.48 836.09s12.29 7.06 15.83 3.38c3.55-3.69-5.47-14.61-5.47-14.61s9.49-9.13 7.26-11.99c-2.23-2.85-11.98-1.98-15.08-1.22 0 0-4.63-12.11-9.19-12.05-4.55.06-4.68 14.75-4.68 14.75s-14.08 3.34-14.44 7.07c-.37 3.73 12.12 8.28 12.12 8.28s-2.12 14.49 1.72 16.24c3.84 1.76 9.27-5.51 11.93-9.85z"/><circle cx="1030.5" cy="233.5" r="9.5"/><path d="m626.25 2411.94c1.06.94 60.39 31.25 64.87 31.31s11.49-22.2-2.69-31.79-21.9-1.2-21.9-1.2 8.67-12.4-3.34-17.49-13.57 10.99-12.71 13.69c-4.01-.95-27.32 2.75-24.23 5.48z"/><path d="m691.12 2443.25c7.99 4.14 9.68 11.76 1.56 16.57s-7.35 14.21-2.51 20.09"/><circle cx="289" cy="671" r="8"/><circle cx="227.7" cy="896.5" r="7.64"/><circle cx="265.5" cy="1395.5" r="9.5"/><circle cx="873" cy="1337" r="10"/><circle cx="62.5" cy="2435.5" r="7.5"/><path d="m1104.02 243.5s5.49 13.07 10.54 12.29c5.06-.78 4.51-14.93 4.51-14.93s13.08-1.51 13.04-5.13-8.33-8.84-11.25-10.11c0 0 3.66-12.44 0-15.15s-12.67 8.89-12.67 8.89-13.22-5.88-15.77-3.14c-2.56 2.74 4.62 13.93 4.62 13.93s-10.47 10.24-8.48 13.96c1.98 3.72 10.71 1.23 15.46-.61z"/><ellipse cx="657.46" cy="83.73" rx="41.01" ry="18.43" transform="matrix(.3763 -.9265 .9265 .3763 332.4942 661.3608)"/><path d="m674.42 46.55c19.79 12.81 83.77 63.45 80.58 71.32-4.51 11.1-101.68 5.45-112.96 3.85"/><ellipse cx="656.44" cy="83.81" rx="10.14" ry="3.69" transform="matrix(.3763 -.9265 .9265 .3763 331.7793 660.4591)"/><path d="m751.22 110.39c17.35-3.92 46.08-1.2 47.77 4.46 1.68 5.66-13.93 12.25-24.01 10.14 14.51 5.89 19.87 15.07 17.53 18.06-4.13 5.28-30.12-7.45-44.14-21.51"/><path d="m629.16 30.95c9.43 3.83 10.17 23.95 1.65 44.93s-23.08 34.89-32.51 31.06"/><path d="m629.16 30.95c-27.35-6.13-82.52 7.26-89.06 13.56s32.39 54.93 58.2 62.43"/><path d="m540.76 51.78c3.73 6.45 27.47 14.11 27.47 14.11"/><circle cx="598.82" cy="57.92" r="2.3"/><path d="m1013 1600c0-2-14-11-29-11s-19 10-19 10c-4-7-24-16-5 3-6 7-9 21 6 6 3 6 12 6 16 6 13 0 31-9 31-14z"/><path d="m996.25 1590.81c-6.25 3.19-4.21 17.59 1.77 19.89"/><path d="m1002 1598v3"/><path d="m206 2388c0-2-14-11-29-11s-19 10-19 10c-4-7-24-16-5 3-6 7-9 21 6 6 3 6 12 6 16 6 13 0 31-9 31-14z"/><path d="m189.25 2378.81c-6.25 3.19-4.21 17.59 1.77 19.89"/><path d="m195 2386v3"/><path d="m979.44 2476.1c-38 14-31 62-16 84-52-9-63.32 10.28-61 18 3 10 33.76 2.79 59 10 28 8 39 7 51 9s25-6 23-2c-12 14-36.11 26.99-76 22-32-4-50.05-19.03-57-6-8 15 16.17 35.47 76 31 67-5 91-38 106-67s39-104-27-148-155-16-179 3c-10.71 8.48-30.35 6.67-42 21-14.45 17.77-20.81 50.99-23 55-6 11-9 30-7 32s14 0 20-3c2-1 24 16 51 22 5 6 17 14 20 13 .95-.32-2-13 0-16s6-14 6-14"/><path d="m908.44 2483.1c-1 9-14 31-11 45s15 20 34 18 23-13 15-19-29-4-29-4"/><path d="m900.23 2548.3c3.2 5.79 35.2 12.79 55.2-.21"/><path d="m939.44 2533.1c2 1 8 1 9-1"/><path d="m938.44 2540.1c1 1 4 1 6 1"/><path d="m913.44 2574.1c-3 1-6.09 4.76-3.55 8.88"/><path d="m861.44 2525.1 3-1v3"/><path d="m870.44 2531.1c1 2 14 7 19 7"/><path d="m833.44 2517.1c1 2 15 8 21 7"/><path d="m817.44 2521.1-2 8"/><path d="m888.44 2554.1 3 6"/><path d="m349-307.16c22.59 22.75.3 34.72-33.09 46.68s-59.43 41.42-36.94 65.59c22.5 24.17 46.29 7.31 38.66-5.95s-57.2-13.71-65.74 40.3 42.65 90.46 52.74 123.96c10.47 34.71-16.33 64.82-45.5 45.18"/><path d="m626.3-24.56c1.06.94 60.39 31.25 64.87 31.31 4.47.06 11.49-22.2-2.69-31.79s-21.9-1.2-21.9-1.2 8.67-12.4-3.34-17.49-13.57 10.99-12.71 13.69c-4.02-.95-27.33 2.75-24.23 5.48z"/><path d="m691.16 6.75c7.99 4.14 9.68 11.76 1.56 16.57s-7.35 14.21-2.51 20.09"/><circle cx="62.54" cy="-1" r="7.5"/><circle cx="227.03" cy="1121.16" r="51"/><path d="m183.14 1144.54c16.68 9.16 66.06-.22 94.12-32.26"/><path d="m187.94 1153.93c17.74 9.29 59.57 6.8 90.07-31.27"/><path d="m208.35 1168.4c14.01 3.97 47.57-6.64 65.46-26.91"/><path d="m223.45 1144.02c10.42-9.22 18.14-65.14 3.48-73.87"/><path d="m237.42 1139.87c11.35-15.83 20.19-53.81 7.22-66.59"/><path d="m253.85 1131.65c8.69-10.84 14.03-36.17 9.2-46.61"/><path d="m189.55 1086.56c1.78 12.48 26.02 32.2 40.56 35.32"/><path d="m180.51 1101.16c.9 8.2 27.49 31.73 47.73 31.34"/><path d="m200 1165c23 13-9 51-23 102s-6 101 73 153 108-17 76-23-77 44-62 87 64 75 21 118"/><path d="m531.11 1273.37c-1.95.45-7.58 16.11-4.22 30.73s14.01 16.27 14.01 16.27c-5.92 5.47-10.21 26.98 4.04 4.2 8.17 4.28 22.48 4.06 4.5-7.19 5.17-4.27 3.16-13.04 2.26-16.94-2.91-12.67-15.72-28.2-20.59-27.07z"/><path d="m525.91 1291.75c4.51 5.38 18.09.16 18.98-6.19"/><path d="m531.63 1284.53 2.92-.67"/><path d="m215.34 178.33-8.62-7.06-8.84 7.73c-2.64 1.52-5.88-.65-5.48-3.67l3.31-11.93-9.34-4.47c-2.26-2.04-1.2-5.79 1.79-6.34l10.69-.2 3.04-10.61c1.24-2.78 5.13-2.93 6.59-.25l4.53 10.08 9.99-.36c3.03.32 4.37 3.98 2.28 6.19l-8.34 5.96 3.58 10.85c.63 2.98-2.43 5.39-5.18 4.08z"/><circle cx="765" cy="1770" r="10"/><circle cx="399" cy="345" r="10"/><path d="m362.12 1709.39c1.32.39 65.99 2.65 69.95.86s.97-24.26-15.45-26.86-19.76 7.96-19.76 7.96 2.53-14.48-10.13-14.01-7.42 15.25-5.55 17.27c-3.92.81-22.9 13.66-19.06 14.78z"/><path d="m432.07 1710.25c8.73.35 13.35 6.37 8.19 13.94s-.62 15.53 6.05 18.71"/><path d="m595.4 1642.62-7.79-1.62-3.04 7.82c-1.17 1.84-3.94 1.53-4.68-.51l-1.85-8.65-7.39.26c-2.11-.55-2.67-3.27-.96-4.61l6.71-3.66-1.58-7.72c-.13-2.17 2.28-3.55 4.09-2.34l6.2 4.89 6.21-3.53c2.03-.8 4.09 1.07 3.49 3.17l-3.31 6.53 5.85 5.69c1.36 1.66.22 4.2-1.95 4.28z"/><circle cx="752.5" cy="202.28" r="7.93"/><circle cx="116" cy="1719" r="9"/><path d="m-12.74 2337.33c-7.7-3.71-26.94-2.39-29.19 7.66s37.83 24.78 43.64 17.56c4.44-5.5-1.33-18.89-14.45-25.22z"/><ellipse cx="-19.44" cy="2317.48" rx="9.5" ry="7.5" transform="matrix(.1648 -.9863 .9863 .1648 -2302.0281 1916.3597)"/><ellipse cx="3.8" cy="2327.47" rx="9.5" ry="7.5" transform="matrix(.665 -.7469 .7469 .665 -1737.0355 782.6055)"/><ellipse cx="16.23" cy="2345.49" rx="8.87" ry="7" transform="matrix(.8949 -.4462 .4462 .8949 -1044.8077 253.6521)"/><ellipse cx="-42.32" cy="2324.38" rx="7" ry="8.87" transform="matrix(.9268 -.3756 .3756 .9268 -876.1806 154.3083)"/><path d="m-51.34 2338.6c-2.99-2.66-13.46-19.63 2.07-30.01 4.16-2.78 10.76-.46 15.76 3.42.21-12.65 23.11-22.21 29.4.8 12.8-9.28 33.45 4.34 22.15 18.39 19.35-3.79 24.22 27.6-6.18 29.63-2.71 10.71-5.57 20.15-9.29 26.41-5.2 8.77-65.91-11.52-63.21-22.23 4.2-16.59 7.38-22.76 9.3-26.41z"/><path d="m1112.09 2337.35c-7.7-3.71-26.94-2.39-29.19 7.66s37.83 24.78 43.64 17.56c4.44-5.5-1.33-18.9-14.45-25.22z"/><ellipse cx="1105.39" cy="2317.5" rx="9.5" ry="7.5" transform="matrix(.1648 -.9863 .9863 .1648 -1362.5996 3025.822)"/><ellipse cx="1128.63" cy="2327.48" rx="9.5" ry="7.5" transform="matrix(.665 -.7469 .7469 .665 -1360.1995 1622.7103)"/><ellipse cx="1141.06" cy="2345.51" rx="8.87" ry="7" transform="matrix(.8949 -.4462 .4462 .8949 -926.6444 755.5305)"/><ellipse cx="1082.51" cy="2324.4" rx="7" ry="8.87" transform="matrix(.9268 -.3756 .3756 .9268 -793.8204 576.817)"/><path d="m1073.49 2338.61c-2.99-2.66-13.46-19.63 2.07-30.01 4.16-2.78 10.76-.46 15.76 3.42.21-12.65 23.11-22.21 29.4.8 12.8-9.28 33.45 4.34 22.15 18.39 19.35-3.79 24.22 27.6-6.18 29.63-2.71 10.71-5.57 20.15-9.29 26.41-5.2 8.77-65.91-11.52-63.21-22.23 4.2-16.59 7.38-22.75 9.3-26.41z"/><path d="m545.63 649.1s8.75 4.86 11.21 2.22c2.47-2.64-4.01-10.25-4.01-10.25s6.6-6.55 5-8.54-8.48-1.27-10.65-.7c0 0-3.4-8.5-6.61-8.41s-3.15 10.46-3.15 10.46-9.9 2.51-10.12 5.14c-.22 2.64 8.64 5.71 8.64 5.71s-1.34 10.25 1.39 11.45c2.71 1.2 6.47-3.99 8.3-7.08z"/><path d="m1245.02 1430.78c-10.96 2.42-25.65 8.59-36.45 27.11-16.24 27.84 5.92 57.83 44.56 58.09 29.96.2 54.58-17.95 56.51-39.94 1.93-21.98-20.78-54.96-64.62-45.26z"/><path d="m1251.52 1454.85 2.72 1.32 3.1-1.52"/><circle cx="1283.24" cy="1467.25" r="15.82"/><circle cx="1229.27" cy="1465.94" r="15.82"/><path d="m1254.12 1457.12s-2.25 17.11.1 21.29"/><circle cx="1228.6" cy="1466.68" r=".41"/><circle cx="1282.95" cy="1467.28" r=".41"/><path d="m1203.48 1525.88c8.33 6.18 103.08 2.94 108.96-4.99s7.23-76.08 4.87-88.32c-.57-2.98 9.68-7.43 8.08-17.31s-33.66-25.38-73.76-21.95c-40.53 3.46-62.7 22.79-63.77 30.91-1.13 8.55 6.93 13.48 7.63 15.51s.06 80.27 7.99 86.15z"/><path d="m1195.83 1532.6c10.22 14.48 120.56 6.36 125.79-5.08 6.96-15.26 6.74-76.09 5.9-91.67-.2-3.61 11.36-9.95 7.06-24.21-4.03-13.36-37.37-33.01-85.12-28.94-48.26 4.12-70.86 27.57-72.61 37.17-2.86 15.62 9.96 23.91 10.05 26.46.18 5.83-1.42 71.61 8.93 86.27z"/><path d="m1224.9 1539.65c-5.96 23.07-3.23 84.19-3.7 93.96-.55 11.53-9.53 20.98-7.43 27.06 2.38 6.9 16.36 7.96 23.06 1.1 6.7-6.85 12.19-26.44 11.46-42.97"/><path d="m1271.4 1618.33c.06 9.57.17 16.96.02 19.85-.59 11.53-9.29 21.02-7.29 27.08 2.26 6.89 15.73 7.87 22.22.99s13.95-33.94 13.33-50.46"/><path d="m1327.67 1480.77c25.58 17.99 29.42 73.59 31.34 89.89s8.63 50.81-2.88 64.23c-11.25 13.12-20.13 16.3-28.76 24.93s-17.26 26.84-25.88 24.93c-8.63-1.92-6.71-14.38 6.71-32.59-3.83-20.13.96-67.11 32.59-65.19"/><path d="m1293.21 1652.71c6.28-.65 11.44-1.55 14.65-2.5"/><path d="m1243 1651.19c7.34 1.58 14.92 2.03 22.89 2.35"/><path d="m1220.95 1591.75c-11.5 7.67-9.43 38.99-12.46 45.06-2.88 5.75-26.84 23.97-19.17 31.64 6.1 6.1 17.26-.96 23.97-7.67"/><path d="m1210.58 1623.41c-24.14 3.82-70.16 2.86-81.66 7.65s-9.59 21.09.96 23.01 48.45-1.89 68.07-5.75"/><path d="m1276.55 1660.78c-2.88 1.92-3.83 8.49-.96 10"/><path d="m1268.89 1658.86c-1.92.96-4.31 5.47-3.6 8.49"/><path d="m1226.7 1655.99c-1.92.96-2.88 6.71 0 9.59"/><path d="m1219.99 1655.03c-2.88 1.92-3.83 4.79-2.88 8.63"/><path d="m1302.44 1675.16c-1.92 1.92-2.88 8.63 0 9.59"/><path d="m1196.03 1661.74c-3.83 1.92-6.2 6.39-4.06 8.47"/><path d="m1291.09 1833.3c8.62-10.34 29.42-15.43 37.92-9.48 8.62 6.03 3.45 45.68-13.79 49.12-17.24 3.45-11.2-22.41-8.62-28.44"/><path d="m1314.36 1809.17c-9.48-6.89-23.27-2.59-32.75 12.07-9.48 14.65-15.51 35.34-3.45 44.82s25.29-5.6 25.29-5.6"/><path d="m1401.4 1869.5c-7.76 12.93-31.89 22.41-38.78 9.48s24.13-38.78 38.78-34.47 14.65 21.55 10.34 31.03"/><path d="m1300.57 1805.73c-6.03-8.62-5.17-27.58 21.55-55.16 1.72-14.65 0-24.99 1.72-27.58s16.37 11.2 19.82 15.51c6.89-3.45 42.23-9.48 52.57-5.17 0 0-2.59-17.24 0-18.1s21.55 12.07 24.13 31.03c11.2 11.2 18.96 35.34 14.65 59.47s-9.48 37.06-9.48 37.06c1.72 8.62 7.76 36.2-17.24 56.88-24.99 20.68-32.75-4.91-30.16-14.52"/><path d="m1281.61 1821.24c-19.82 0-63.78 11.2-70.67 51.71s12.07 70.67 31.89 78.43"/><path d="m1320.39 1926.38c-5.17-11.2-30.16-18.96-55.16 5.17-.86-12.07-6.89-41.37-21.55-34.47-12.6 5.93-1.72 19.82-.86 37.06s-.86 27.58 7.76 31.89 11.26-.19 20.68 2.59c14.65 4.31 75.63 16.58 116.67-61.09"/><path d="m1249.73 1827.95c-4.32-10.16-16.37-13.41-25.01-12.74-11.2.86-25.85 16.37-27.58 35.34-9.48-7.76-28.44-18.1-34.47-9.48-5.59 7.99 16.37 20.68 25.85 33.61 6.65 9.06 16.37 15.51 20.96 10.47"/><path d="m1215.87 1922.22c-17.86 5.03-48.02-4.45-71.29-14.79-23.38-10.39-40.51-14.65-45.68-5.17s6.29 30.35 47.4 42.23c38.78 11.2 75.66 5.04 87.38 1.66"/><path d="m1316.06 1778.15c-.26 6.09 7.31 10.66 20.23 11.21s20.88-4.29 20.24-9.49-8.14-11.56-21.02-12.97-19.19 5.22-19.45 11.25z"/><path d="m1335.26 1772.92-.33 7.75"/><path d="m1419.49 1773.65c.57 6.07-6.75 11.03-19.62 12.24s-21.08-3.2-20.71-8.43 7.53-11.97 20.31-14.04c12.8-2.07 19.46 4.22 20.02 10.23z"/><path d="m1400.05 1769.43.73 7.72"/><path d="m1360.03 1788.49c0 4.31 9.48 3.45 9.48-2.59 1.72 6.03 8.62 6.03 9.48 2.59"/><path d="m1304.34 1867.38c3.12 2.98 10.01-3.05 10.01-7.36"/><path d="m1315.22 1872.95c4.31-1.72 5.17-6.89 6.03-10.34"/><path d="m1373.82 1884.15c-1.72-1.72 1.72-9.48 5.17-10.34"/><path d="m1363.48 1878.98c0-2.59 3.45-7.76 7.76-8.62"/><path d="m1252.2 1897.25c-4.21.69-4.21 5.86-3.35 9.31"/><path d="m1241.96 1897.94c-2.59 3.45-.86 7.76 0 10.34"/><path d="m1171.29 1842.78c-2.59-1.72-8.55.37-8.58 4.49"/><path d="m1335.04 1741.95-5.17-6.03v8.62"/><path d="m1403.12 1735.92v-7.76l6.04 11.2"/><path d="m1142.8 738.69c4.09-13.09 22.33-18.42 28.64-9.82 9 12.28-13.91 50.74-23.73 58.92s-41.34-35.56-35.19-54.01c4.09-12.28 27.82-9 30.28 4.91z"/><path d="m1277.64 1057.65c-3.19 34.64-8.27 56.78-10.95 62.14-3 6 19 26 18 53-.85 23.01-13.49 51.07-12 60 1 6 8 12 4 19-2.48 4.34-17 4-22-4-3.39-5.43-1-30-4-38s-5-12-7-14"/><path d="m1192.69 962.8c2-13 24-47 31-54 2-10 8-27 12-29 2.53-1.26 9 15 11 20 6 0 35 9 42 16 11-7 18-10 20-10 3 0-4 25-7 29s2.94 30.24 1 38c-6 24-14.24 26.02-19.99 46.99"/><path d="m1160.95 1035.92c4.73-45.99 16.11-72.33 28.74-73.12 16-1 27 17 30 28s13 23 31 27 59 0 68 4 16 13 4 18-76 17-95 14-41-22-46-28"/><path d="m1228.69 1135.8c9 9 24 41 13 62s-13 23-13 29c0 14 10 17 10 28 0 6-15 10-24 2-11.63-10.34-16-62-20-73s-37-36-36-107c.11-8.13.4-15.88.84-23.24"/><path d="m1217.94 1051.01c-24.76.93-46.74 4.54-57.24 2.79-12-2-27.85-18 27.08-22"/><path d="m1301.14 1045.45c-.47 5.44-2.15 9.69-5.45 11.34-8.47 4.23-23.9-.49-42.44-3.64"/><path d="m1289.69 1004.8c3.26 2.93 5.39 7.99 7.7 14.99"/><path d="m1177.63 1157.9c-16.94 19.9-25.94 43.9-29.94 64.9s-18 30-36 34c-18.24 4.05-23.66-17.27-5-21 30-6 13-47 60-101"/><path d="m1231.69 902.8 3-9 4 6"/><path d="m1292.69 921.8 7-4-3 9"/><ellipse cx="1232.19" cy="943.3" rx="17.5" ry="14.5" transform="matrix(.3281 -.9446 .9446 .3281 -63.201 1797.7363)"/><path d="m1233.2 938.88-2.3 6.62"/><ellipse cx="1279.19" cy="958.3" rx="17.5" ry="14.5" transform="matrix(.3281 -.9446 .9446 .3281 -45.7928 1852.2119)"/><path d="m1280.2 953.88-2.3 6.62"/><path d="m1253.69 947.8 1 3 3-1"/><path d="m1254.69 950.8-8 23"/><path d="m1328.45 1030.16c-1.75-2.36-9.75-.36-9.75-.36"/><path d="m1320.47 1022.67c-.78-.87-5.78 1.13-5.78 1.13"/><path d="m1160.69 1045.8c-3 0-6 3-7 4"/><path d="m1158.69 1040.8c-3 0-8 2-8 2"/><path d="m1224.69 1252.8c3 2 2 7 2 7"/><path d="m1231.69 1250.8c2 1 4 6 3 8"/><path d="m1264.69 1244.8c1 1 2 6 0 8"/><path d="m1272.69 1244.8c1 1 2 5 1 8"/><ellipse cx="1185" cy="1307" rx="69.5" ry="12" transform="matrix(.9918 -.1279 .1279 .9918 -157.3824 162.2354)"/><path d="m1254.05 1299.11c1.28 9.92 1.62 12.57 2.05 15.87.85 6.57-29.33 15.88-67.4 20.79s-69.62 3.56-70.46-3.02c-.42-3.29-1.02-7.93-2.17-16.86"/><path d="m1142.74 1320.17c11.61-3.17 26.52-6.1 42.9-8.21 16.36-2.11 34.47-3.09 46.5-2.97"/><path d="m1188.21 1335.83 1.28 9.92"/><path d="m1189.61 1346.74c6.43-4.86 14.62-3.9 15.64 4.03s-8.86 17.28-12.83 17.79c-4.09.53-16.03-7.01-16.92-13.95s7.52-12.06 14.11-7.87z"/><path d="m1123.69 1803.4c4.36-5.77 10.36-6.9 12.59-5.43s5.73 5.27 2.69 12.47c.76 3.69 8.65 12.26 4.29 18.03s-14.38 4.44-20.44-4.05c-6.88.17-14.55-2.43-16.08-9.82s10.11-11.94 16.95-11.2z"/><path d="m1132.21 1774.45c-5.92-.7-9.74 14.25-3.46 17.26s13.52-16.07 3.46-17.26z"/><path d="m1144.07 1797.83c3.51 3.81 18.13-6.1 12.41-12.31-4.82-5.24-17.31 6.99-12.41 12.31z"/><path d="m1115.29 1796.18c-2.98 1.81-12.42-9.67-7.19-14.49 5.24-4.82 12.82 11.06 7.19 14.49z"/><path d="m1146.24 1811.65c.76 3.69 15.39 4.3 13.42-3.57-1.48-5.95-14.91-3.65-13.42 3.57z"/><path d="m-128.56 2194.41c-13 0-22.63-13.92 15-39 12-8 36.47-1.12 41 17 4 16-3 22-12 22s-34 0-44 0z"/><path d="m-83.56 2156.41c2-5 10-10 16-7s4.58 14.75-7.21 17.37"/><path d="m-114.63 2156.12c-2.94-6.71-8.94-10.71-14.94-7.71s-2.21 11.49 5.39 14.74"/><path d="m-111.69 2154.33c13.12-8.92 40.12-27.92 63.12-18.92s21 35 17 44-23 14-52 15"/><path d="m-29.08 2170.08c5.52 5.33 8.52-.67 20.52 4.33s13 19 23 22"/><circle cx="-91.56" cy="2174.41" r="1"/><circle cx="-124.56" cy="2171.41" r="1"/><path d="m-58.98 1628.52c5.86-4.28 32.86 14.7 44.73 37.96s15.89 41.62 15.89 41.62c11.89 4.73 21.67 16.79 19.04 21.34-2.62 4.54-18.61-11.29-18.61-11.29 3.49 6.3 7.62 23.63 3.05 24.04-8.83.78-11.79-21.25-13.18-25.62-45.81-15.76-62.73-72.23-50.92-88.05z"/><path d="m-53.76 1675.03c4.62 4.24 29.52-7.74 30.08-21.84"/><path d="m-57.93 1628.05 10.04 14.9"/><circle cx="-54.8" cy="1650.9" r=".9"/><path d="m-42.23 1680.98c2.88 1.49 7.61-1.13 7.43-5.15"/><path d="m-27.71 1671.89c2.88 1.49 7.61-1.13 7.43-5.15"/><path d="m-29.99 1684.48c2.88 1.49 7.61-1.13 7.43-5.15"/><path d="m-30.26 1696.98c2.88 1.49 7.61-1.13 7.43-5.15"/><path d="m-18.55 1688.42c2.88 1.49 7.61-1.13 7.43-5.15"/><path d="m-17.59 1701.27c2.88 1.49 7.61-1.13 7.43-5.15"/><path d="m-200.56 287.41c-2-11-12-35-23-43-6-14-10-29-14-30s-13 19-14 21c-7-2-36-1-41 1-6-8-13-19-16-20s-13 25-14 33c-10 11-20 43-22 50s-25 46-3 97c2 20 13 32 42 30s40.59-6.95 40-14c-1-12-26-15-49-13"/><path d="m-223.56 394.41c-23 1-41 4-42 18s27 12 42 11 42.29-7.14 44-14c4-1 33.82 3.08 69-12 7-3 85 11 87-5s-64-34-70-51-13-116-130-97"/><path d="m-353 381.07c-13.57 2.34-43.02 23.21 6.71 22.78"/><path d="m-99.4 318.36c20.83 4.05 80.83-2.95 99.83-6.95s34.04-3.84 37 8c3 12-34.64 34.43-118.32 34.22"/><path d="m-256.56 275.41c0 11 39 8 39-1 0-10-39-11-39 1z"/><path d="m-325.56 276.41c0 11 39 8 39-1 0-10-39-11-39 1z"/><path d="m-229.06 267.66.5 12.75"/><path d="m-296.39 268.62v13.41"/><path d="m-243.56 237.41 5-8 3 10"/><path d="m-302.56 239.41-4-8-3 11"/><path d="m-264.04 406.89c1.48 1.52 11.48.52 11.48.52"/><path d="m-263.56 415.41c5 2 10 0 10 0"/><path d="m-278.56 408.41c3 1 10 0 10 0"/><path d="m-277.56 415.41c2 1 10 2 12 0"/><path d="m-33.56 387.41c1 1 7 3 9 3"/><path d="m-36.56 395.41c2 1 5 1 10 1"/><path d="m-373.62 394c2.05.41 9.05-1.59 9.05-1.59"/><path d="m-370.56 399.41c1 0 9-1 9-1"/><path d="m-211.56 483.41c10-4 32-5 36 2 3.33 5.82-1 19-26 21s-42-8-39-25 28-33 63-32"/><path d="m-176.56 572.41c-10 8-19 34-11 45 9.3 12.79 45-1 43-12s-20-9-28-6"/><path d="m-160.77 597.09c8.21-2.68 14.21-10.68 14.21-13.68"/><path d="m-160.56 559.41c1 13 19 31 37 39 0 0-20 7-18 24s20 21 28 20"/><path d="m-104.56 629.41c7 4 39 11 56 1"/><path d="m-70.56 636.41c1 5-10 12-25 18s-33 19-44 18-8-16 20-30"/><path d="m-135.56 662.41c-4 2-4 7 0 9"/><path d="m-186.56 486.41c2 1 9 1 10-1"/><path d="m-187.56 496.41c2 1 8.77 1 10.39 0"/><path d="m-158.56 604.41c2 1 8.39-1.9 10.7-4.45"/><path d="m-154.56 611.41c2 0 7.34-1 9.67-3"/><path d="m-240.56 478.41c-9 4-23 21-25 25-5 4-25 24-22 30s20 1 20 1c1 6 12 33 22 40-9 3-15 9-13 12 1.24 1.86 16 5 37 0 10 0 32.01-3.2 38.5-6.1"/><path d="m-234.56 533.41c9-2-5-31-14-27s2.12 29.64 14 27z"/><path d="m-222.56 529.41c2-5 9 6 2 8 7-3 12 8 6 7"/><path d="m-240.56 519.41 4-2"/><path d="m-271.56 520.41-5 6 7-1"/><path d="m-241.56 579.41-5 3h9"/><path d="m-212.56 574.41c9-2-5-31-14-27s2.12 29.64 14 27z"/><path d="m-218.56 560.41 4-2"/><path d="m-190.64 449.7c48.08-17.29 88.08-22.29 138.08 3.71s61 85 62 110-1 64-27 104-39.42 65.95-41 81c-2 19-30 19-30-2s5-45 40-90"/><path d="m-24.56 513.41c-19-10-53-5-56 20s28 57 35 65c0 10-11 65 6 67s24-46 22-65"/><path d="m-41.56 650.41c-4 2-4 10-4 10"/><path d="m-32.56 651.41c1 1 3 7 2 9"/><path d="m-75.09 1267.47c4.3 12.9 12.69 29.71.81 34.99s-41.73-31.04-32.27-54.26c9.46-23.23 39.53-18.41 49.85-7.16 7.18 7.84 15.74 31.64 21.2 51.52 11.37 15.74 29.85 36.32 31.11 90.3 1.26 53.99-2.77 96.09 6.09 132.89 6.25 10.86 12.51 21.72.67 28.99-11.83 7.28-33.29-12.23-53.03-86.79-4.65 15.11-29.43 67.7-45.5 65.08s1.23-33.04 1.23-33.04"/><path d="m-89.09 1482.86c-5.84 7.14-24.46 23.57-40.73 11.95-16.27-11.63-6.04-44.87 3.53-63.1-5.46-19.88-6.86-36.85-7.23-52.85"/><path d="m-129.73 1369.77c-1.84 7.04-11.69 16.36-17.6 17.41-12.95 2.3-21.34-14.51-40.24-10.07-5.92 1.39-36.62 16.86-43.83 8.02-7.21-8.83 17.44-24.41 31.27-31.74s31.76-10.74 33.71-12.79 1.63-16.04 8.53-20.2"/><path d="m-84.42 1231.75c-12.71-8.77-40.07-24.14-77.6-3.26-37.52 20.88-47.22 98.99-.48 97.97"/><path d="m-176.34 1257.82c.12 5 11.95-2.28 8.74-11.21 6.11 4.86 20.83-7.49 12.81-8.3"/><path d="m-133.24 1218.56c3.77-9.84 11.68-14.03 12.68-14.05s7.16 6.84 10.32 13.76"/><path d="m-191.84 1272.23c-.12 1.96-14.91 11.3-16.82 15.35s15.23 9.65 15.23 9.65"/><path d="m-78.62 1287.56c.12 5 7.04 10.46 9.62 9.59"/><path d="m-85.55 1290.72c.05 2 1.91 8.48 4.12 11.17"/><path d="m-221.61 1375.91c-2.98 1.07-6.94 8.72-3.8 11.87"/><path d="m-88.48 1508.85c-2.93 3.07-4.01 10.93-2.82 13.49"/><path d="m-97.53 1507.06c-2.95 2.07-4.95 6.53-5.35 8.84"/><path d="m-7.97 1529.98c3.07 2.93 2.82 11.19-.38 14.64"/><path d="m1.98 1527.75c2.02.95 5.18 7.88 4.32 13.9"/><path d="m-119.39 1498.9c-20.94 17.16-55.37 41.97-94.25 47.87-20.16 3.06-22.37-15.48-2.53-22.95 19.83-7.46 59.3-23.05 77.83-47.16"/><path d="m-37.71 835.65c4.51-8.79 12.32-11.72 15.67-10.27s8.96 5.75 6.55 16.16c1.89 4.79 14.52 14.47 10.01 23.27s-18.31 9.36-28.46-.65c-9.21 1.85-20.16.14-23.95-9.45s10.8-18.45 20.18-19.06z"/><path d="m-33.04 794.68c-8.14.44-9.77 21.47-.61 24.04 9.18 2.57 14.43-24.8.61-24.04z"/><path d="m-11.59 823.37c5.61 4.3 22.97-12.47 13.82-19.48-7.72-5.91-21.66 13.47-13.82 19.48z"/><path d="m-50.71 827.91c-3.58 3.14-18.99-10.1-13.07-17.82 5.91-7.72 19.85 11.88 13.07 17.82z"/><path d="m-5.41 841.47c1.89 4.79 21.73 2.17 17.23-7.95-3.4-7.67-20.94-1.42-17.23 7.95z"/><path d="m-20.54 242.9s5.49 13.07 10.54 12.29c5.06-.78 4.51-14.93 4.51-14.93s13.08-1.51 13.04-5.13-8.33-8.84-11.25-10.11c0 0 3.66-12.44 0-15.15s-12.67 8.89-12.67 8.89-13.22-5.88-15.77-3.14c-2.56 2.74 4.62 13.93 4.62 13.93s-10.47 10.25-8.48 13.96c1.98 3.72 10.71 1.23 15.46-.61z"/></g></g></svg>